  0
SECTION
  2
HEADER
  9
$ACADVER
  1
AC1024
  9
$ACADMAINTVER
 70
6
  9
$DWGCODEPAGE
  3
ANSI_1252
  9
$LASTSAVEDBY
  1
ezdxf
  9
$INSBASE
 10
0.0
 20
0.0
 30
0.0
  9
$EXTMIN
 10
-100
 20
-100
 30
-100
  9
$EXTMAX
 10
100
 20
100
 30
100
  9
$LIMMIN
 10
0.0
 20
0.0
  9
$LIMMAX
 10
420.0
 20
297.0
  9
$ORTHOMODE
 70
0
  9
$REGENMODE
 70
1
  9
$FILLMODE
 70
1
  9
$QTEXTMODE
 70
0
  9
$MIRRTEXT
 70
1
  9
$LTSCALE
 40
1.0
  9
$ATTMODE
 70
1
  9
$TEXTSIZE
 40
2.5
  9
$TRACEWID
 40
1.0
  9
$TEXTSTYLE
  7
Standard
  9
$CLAYER
  8
0
  9
$CELTYPE
  6
ByLayer
  9
$CECOLOR
 62
256
  9
$CELTSCALE
 40
1.0
  9
$DISPSILH
 70
0
  9
$DIMSCALE
 40
1.0
  9
$DIMASZ
 40
2.5
  9
$DIMEXO
 40
0.625
  9
$DIMDLI
 40
3.75
  9
$DIMRND
 40
0.0
  9
$DIMDLE
 40
0.0
  9
$DIMEXE
 40
1.25
  9
$DIMTP
 40
0.0
  9
$DIMTM
 40
0.0
  9
$DIMTXT
 40
2.5
  9
$DIMCEN
 40
2.5
  9
$DIMTSZ
 40
0.0
  9
$DIMTOL
 70
0
  9
$DIMLIM
 70
0
  9
$DIMTIH
 70
0
  9
$DIMTOH
 70
0
  9
$DIMSE1
 70
0
  9
$DIMSE2
 70
0
  9
$DIMTAD
 70
1
  9
$DIMZIN
 70
8
  9
$DIMBLK
  1

  9
$DIMASO
 70
1
  9
$DIMSHO
 70
1
  9
$DIMPOST
  1

  9
$DIMAPOST
  1

  9
$DIMALT
 70
0
  9
$DIMALTD
 70
3
  9
$DIMALTF
 40
0.03937007874
  9
$DIMLFAC
 40
1.0
  9
$DIMTOFL
 70
1
  9
$DIMTVP
 40
0.0
  9
$DIMTIX
 70
0
  9
$DIMSOXD
 70
0
  9
$DIMSAH
 70
0
  9
$DIMBLK1
  1

  9
$DIMBLK2
  1

  9
$DIMSTYLE
  2
ISO-25
  9
$DIMCLRD
 70
0
  9
$DIMCLRE
 70
0
  9
$DIMCLRT
 70
0
  9
$DIMTFAC
 40
1.0
  9
$DIMGAP
 40
0.625
  9
$DIMJUST
 70
0
  9
$DIMSD1
 70
0
  9
$DIMSD2
 70
0
  9
$DIMTOLJ
 70
0
  9
$DIMTZIN
 70
8
  9
$DIMALTZ
 70
0
  9
$DIMALTTZ
 70
0
  9
$DIMUPT
 70
0
  9
$DIMDEC
 70
2
  9
$DIMTDEC
 70
2
  9
$DIMALTU
 70
2
  9
$DIMALTTD
 70
3
  9
$DIMTXSTY
  7
Standard
  9
$DIMAUNIT
 70
0
  9
$DIMADEC
 70
0
  9
$DIMALTRND
 40
0.0
  9
$DIMAZIN
 70
0
  9
$DIMDSEP
 70
44
  9
$DIMATFIT
 70
3
  9
$DIMFRAC
 70
0
  9
$DIMLDRBLK
  1

  9
$DIMLUNIT
 70
2
  9
$DIMLWD
 70
-2
  9
$DIMLWE
 70
-2
  9
$DIMTMOVE
 70
0
  9
$DIMFXL
 40
1.0
  9
$DIMFXLON
 70
0
  9
$DIMJOGANG
 40
0.785398163397
  9
$DIMTFILL
 70
0
  9
$DIMTFILLCLR
 70
0
  9
$DIMARCSYM
 70
0
  9
$DIMLTYPE
  6

  9
$DIMLTEX1
  6

  9
$DIMLTEX2
  6

  9
$DIMTXTDIRECTION
 70
0
  9
$LUNITS
 70
2
  9
$LUPREC
 70
4
  9
$SKETCHINC
 40
1.0
  9
$FILLETRAD
 40
10.0
  9
$AUNITS
 70
0
  9
$AUPREC
 70
2
  9
$MENU
  1
.
  9
$ELEVATION
 40
0.0
  9
$PELEVATION
 40
0.0
  9
$THICKNESS
 40
0.0
  9
$LIMCHECK
 70
0
  9
$CHAMFERA
 40
0.0
  9
$CHAMFERB
 40
0.0
  9
$CHAMFERC
 40
0.0
  9
$CHAMFERD
 40
0.0
  9
$SKPOLY
 70
0
  9
$TDCREATE
 40
2459124.0332060186
  9
$TDUCREATE
 40
2458532.153996898
  9
$TDUPDATE
 40
2459124.0332291666
  9
$TDUUPDATE
 40
2458532.1544311
  9
$TDINDWG
 40
0.0
  9
$TDUSRTIMER
 40
0.0
  9
$USRTIMER
 70
1
  9
$ANGBASE
 50
0.0
  9
$ANGDIR
 70
0
  9
$PDMODE
 70
0
  9
$PDSIZE
 40
0.0
  9
$PLINEWID
 40
0.0
  9
$SPLFRAME
 70
0
  9
$SPLINETYPE
 70
6
  9
$SPLINESEGS
 70
8
  9
$HANDSEED
  5
5F
  9
$SURFTAB1
 70
6
  9
$SURFTAB2
 70
6
  9
$SURFTYPE
 70
6
  9
$SURFU
 70
6
  9
$SURFV
 70
6
  9
$UCSBASE
  2

  9
$UCSNAME
  2

  9
$UCSORG
 10
0.0
 20
0.0
 30
0.0
  9
$UCSXDIR
 10
1.0
 20
0.0
 30
0.0
  9
$UCSYDIR
 10
0.0
 20
1.0
 30
0.0
  9
$UCSORTHOREF
  2

  9
$UCSORTHOVIEW
 70
0
  9
$UCSORGTOP
 10
0.0
 20
0.0
 30
0.0
  9
$UCSORGBOTTOM
 10
0.0
 20
0.0
 30
0.0
  9
$UCSORGLEFT
 10
0.0
 20
0.0
 30
0.0
  9
$UCSORGRIGHT
 10
0.0
 20
0.0
 30
0.0
  9
$UCSORGFRONT
 10
0.0
 20
0.0
 30
0.0
  9
$UCSORGBACK
 10
0.0
 20
0.0
 30
0.0
  9
$PUCSBASE
  2

  9
$PUCSNAME
  2

  9
$PUCSORG
 10
0.0
 20
0.0
 30
0.0
  9
$PUCSXDIR
 10
1.0
 20
0.0
 30
0.0
  9
$PUCSYDIR
 10
0.0
 20
1.0
 30
0.0
  9
$PUCSORTHOREF
  2

  9
$PUCSORTHOVIEW
 70
0
  9
$PUCSORGTOP
 10
0.0
 20
0.0
 30
0.0
  9
$PUCSORGBOTTOM
 10
0.0
 20
0.0
 30
0.0
  9
$PUCSORGLEFT
 10
0.0
 20
0.0
 30
0.0
  9
$PUCSORGRIGHT
 10
0.0
 20
0.0
 30
0.0
  9
$PUCSORGFRONT
 10
0.0
 20
0.0
 30
0.0
  9
$PUCSORGBACK
 10
0.0
 20
0.0
 30
0.0
  9
$USERI1
 70
0
  9
$USERI2
 70
0
  9
$USERI3
 70
0
  9
$USERI4
 70
0
  9
$USERI5
 70
0
  9
$USERR1
 40
0.0
  9
$USERR2
 40
0.0
  9
$USERR3
 40
0.0
  9
$USERR4
 40
0.0
  9
$USERR5
 40
0.0
  9
$WORLDVIEW
 70
1
  9
$SHADEDGE
 70
3
  9
$SHADEDIF
 70
70
  9
$TILEMODE
 70
1
  9
$MAXACTVP
 70
64
  9
$PINSBASE
 10
0.0
 20
0.0
 30
0.0
  9
$PLIMCHECK
 70
0
  9
$PEXTMIN
 10
1e+20
 20
1e+20
 30
1e+20
  9
$PEXTMAX
 10
-1e+20
 20
-1e+20
 30
-1e+20
  9
$PLIMMIN
 10
0.0
 20
0.0
  9
$PLIMMAX
 10
420.0
 20
297.0
  9
$UNITMODE
 70
0
  9
$VISRETAIN
 70
1
  9
$PLINEGEN
 70
0
  9
$PSLTSCALE
 70
1
  9
$TREEDEPTH
 70
3020
  9
$CMLSTYLE
  2
Standard
  9
$CMLJUST
 70
0
  9
$CMLSCALE
 40
20.0
  9
$PROXYGRAPHICS
 70
1
  9
$MEASUREMENT
 70
1
  9
$CELWEIGHT
370
-1
  9
$ENDCAPS
280
0
  9
$JOINSTYLE
280
0
  9
$LWDISPLAY
290
0
  9
$INSUNITS
 70
6
  9
$HYPERLINKBASE
  1

  9
$STYLESHEET
  1

  9
$XEDIT
290
1
  9
$CEPSNTYPE
380
0
  9
$PSTYLEMODE
290
1
  9
$FINGERPRINTGUID
  2
95B7F5E1-0366-11EB-954C-1063C8951B03
  9
$VERSIONGUID
  2
9688DE7C-0366-11EB-8BFB-1063C8951B03
  9
$EXTNAMES
290
1
  9
$PSVPSCALE
 40
0.0
  9
$OLESTARTUP
290
0
  9
$SORTENTS
280
127
  9
$INDEXCTL
280
0
  9
$HIDETEXT
280
1
  9
$XCLIPFRAME
280
2
  9
$HALOGAP
280
0
  9
$OBSCOLOR
 70
257
  9
$OBSLTYPE
280
0
  9
$INTERSECTIONDISPLAY
280
0
  9
$INTERSECTIONCOLOR
 70
257
  9
$DIMASSOC
280
2
  9
$PROJECTNAME
  1

  9
$CAMERADISPLAY
290
0
  9
$LENSLENGTH
 40
50.0
  9
$CAMERAHEIGHT
 40
0.0
  9
$STEPSPERSEC
 40
24.0
  9
$STEPSIZE
 40
100.0
  9
$3DDWFPREC
 40
2.0
  9
$PSOLWIDTH
 40
0.005
  9
$PSOLHEIGHT
 40
0.08
  9
$LOFTANG1
 40
1.570796326795
  9
$LOFTANG2
 40
1.570796326795
  9
$LOFTMAG1
 40
0.0
  9
$LOFTMAG2
 40
0.0
  9
$LOFTPARAM
 70
7
  9
$LOFTNORMALS
280
1
  9
$LATITUDE
 40
37.795
  9
$LONGITUDE
 40
-122.394
  9
$NORTHDIRECTION
 40
0.0
  9
$TIMEZONE
 70
-8000
  9
$LIGHTGLYPHDISPLAY
280
1
  9
$TILEMODELIGHTSYNCH
280
1
  9
$CMATERIAL
347
20
  9
$SOLIDHIST
280
0
  9
$SHOWHIST
280
1
  9
$DWFFRAME
280
2
  9
$DGNFRAME
280
2
  9
$REALWORLDSCALE
290
1
  9
$INTERFERECOLOR
 62
256
  9
$CSHADOW
280
0
  9
$SHADOWPLANELOCATION
 40
0.0
  0
ENDSEC
  0
SECTION
  2
CLASSES
  0
CLASS
  1
ACDBDICTIONARYWDFLT
  2
AcDbDictionaryWithDefault
  3
ObjectDBX Classes
 90
0
 91
0
280
0
281
0
  0
CLASS
  1
SUN
  2
AcDbSun
  3
SCENEOE
 90
1153
 91
0
280
0
281
0
  0
CLASS
  1
VISUALSTYLE
  2
AcDbVisualStyle
  3
ObjectDBX Classes
 90
4095
 91
0
280
0
281
0
  0
CLASS
  1
MATERIAL
  2
AcDbMaterial
  3
ObjectDBX Classes
 90
1153
 91
0
280
0
281
0
  0
CLASS
  1
SCALE
  2
AcDbScale
  3
ObjectDBX Classes
 90
1153
 91
0
280
0
281
0
  0
CLASS
  1
TABLESTYLE
  2
AcDbTableStyle
  3
ObjectDBX Classes
 90
4095
 91
0
280
0
281
0
  0
CLASS
  1
MLEADERSTYLE
  2
AcDbMLeaderStyle
  3
ACDB_MLEADERSTYLE_CLASS
 90
4095
 91
0
280
0
281
0
  0
CLASS
  1
DICTIONARYVAR
  2
AcDbDictionaryVar
  3
ObjectDBX Classes
 90
0
 91
0
280
0
281
0
  0
CLASS
  1
CELLSTYLEMAP
  2
AcDbCellStyleMap
  3
ObjectDBX Classes
 90
1152
 91
0
280
0
281
0
  0
CLASS
  1
MENTALRAYRENDERSETTINGS
  2
AcDbMentalRayRenderSettings
  3
SCENEOE
 90
1024
 91
0
280
0
281
0
  0
CLASS
  1
ACDBDETAILVIEWSTYLE
  2
AcDbDetailViewStyle
  3
ObjectDBX Classes
 90
1025
 91
0
280
0
281
0
  0
CLASS
  1
ACDBSECTIONVIEWSTYLE
  2
AcDbSectionViewStyle
  3
ObjectDBX Classes
 90
1025
 91
0
280
0
281
0
  0
CLASS
  1
RASTERVARIABLES
  2
AcDbRasterVariables
  3
ISM
 90
0
 91
0
280
0
281
0
  0
CLASS
  1
ACDBPLACEHOLDER
  2
AcDbPlaceHolder
  3
ObjectDBX Classes
 90
0
 91
0
280
0
281
0
  0
CLASS
  1
LAYOUT
  2
AcDbLayout
  3
ObjectDBX Classes
 90
0
 91
0
280
0
281
0
  0
ENDSEC
  0
SECTION
  2
TABLES
  0
TABLE
  2
VPORT
  5
8
330
0
100
AcDbSymbolTable
 70
1
  0
VPORT
  5
23
330
8
100
AcDbSymbolTableRecord
100
AcDbViewportTableRecord
  2
*Active
 70
0
 10
0.0
 20
0.0
 11
1.0
 21
1.0
 12
70.0
 22
50.0
 13
0.0
 23
0.0
 14
0.5
 24
0.5
 15
0.5
 25
0.5
 16
0.0
 26
0.0
 36
1.0
 17
0.0
 27
0.0
 37
0.0
 40
1.0
 41
1.34
 42
50.0
 43
0.0
 44
0.0
 50
0.0
 51
0.0
 71
0
 72
1000
 73
1
 74
3
 75
0
 76
0
 77
0
 78
0
281
0
 65
0
146
0.0
  0
ENDTAB
  0
TABLE
  2
LTYPE
  5
2
330
0
100
AcDbSymbolTable
 70
3
  0
LTYPE
  5
24
330
2
100
AcDbSymbolTableRecord
100
AcDbLinetypeTableRecord
  2
ByBlock
 70
0
  3

 72
65
 73
0
 40
0.0
  0
LTYPE
  5
25
330
2
100
AcDbSymbolTableRecord
100
AcDbLinetypeTableRecord
  2
ByLayer
 70
0
  3

 72
65
 73
0
 40
0.0
  0
LTYPE
  5
26
330
2
100
AcDbSymbolTableRecord
100
AcDbLinetypeTableRecord
  2
Continuous
 70
0
  3

 72
65
 73
0
 40
0.0
  0
ENDTAB
  0
TABLE
  2
LAYER
  5
1
330
0
100
AcDbSymbolTable
 70
2
  0
LAYER
  5
27
330
1
100
AcDbSymbolTableRecord
100
AcDbLayerTableRecord
  2
0
 70
0
 62
7
  6
Continuous
370
-3
390
13
347
21
  0
LAYER
  5
28
330
1
100
AcDbSymbolTableRecord
100
AcDbLayerTableRecord
  2
Defpoints
 70
0
 62
7
  6
Continuous
290
0
370
-3
390
13
347
21
  0
ENDTAB
  0
TABLE
  2
STYLE
  5
5
330
0
100
AcDbSymbolTable
 70
1
  0
STYLE
  5
29
330
5
100
AcDbSymbolTableRecord
100
AcDbTextStyleTableRecord
  2
Standard
 70
0
 40
0.0
 41
1.0
 50
0.0
 71
0
 42
2.5
  3
txt
  4

  0
ENDTAB
  0
TABLE
  2
VIEW
  5
7
330
0
100
AcDbSymbolTable
 70
0
  0
ENDTAB
  0
TABLE
  2
UCS
  5
6
330
0
100
AcDbSymbolTable
 70
0
  0
ENDTAB
  0
TABLE
  2
APPID
  5
3
330
0
100
AcDbSymbolTable
 70
2
  0
APPID
  5
2A
330
3
100
AcDbSymbolTableRecord
100
AcDbRegAppTableRecord
  2
ACAD
 70
0
  0
APPID
  5
5E
330
3
100
AcDbSymbolTableRecord
100
AcDbRegAppTableRecord
  2
HATCHBACKGROUNDCOLOR
 70
0
  0
ENDTAB
  0
TABLE
  2
DIMSTYLE
  5
4
330
0
100
AcDbSymbolTable
 70
1
100
AcDbDimStyleTable
  0
DIMSTYLE
105
2B
330
4
100
AcDbSymbolTableRecord
100
AcDbDimStyleTableRecord
  2
Standard
 70
0
 40
1.0
 41
2.5
 42
0.625
 43
3.75
 44
1.25
 45
0.0
 46
0.0
 47
0.0
 48
0.0
 49
2.5
140
2.5
141
2.5
142
0.0
143
0.03937007874
144
1.0
145
0.0
146
1.0
147
0.625
148
0.0
 69
0
 70
0
 71
0
 72
0
 73
0
 74
0
 75
0
 76
0
 77
1
 78
8
 79
0
170
0
171
3
172
1
173
0
174
0
175
0
176
0
177
0
178
0
179
0
271
0
272
2
273
2
274
3
275
0
276
0
277
2
278
44
279
0
280
0
281
0
282
0
283
0
284
8
285
0
286
0
288
0
289
3
290
0
371
-2
372
-2
  0
ENDTAB
  0
TABLE
  2
BLOCK_RECORD
  5
9
330
0
100
AcDbSymbolTable
 70
2
  0
BLOCK_RECORD
  5
17
330
9
100
AcDbSymbolTableRecord
100
AcDbBlockTableRecord
  2
*Model_Space
340
1A
 70
0
280
1
281
0
  0
BLOCK_RECORD
  5
1B
330
9
100
AcDbSymbolTableRecord
100
AcDbBlockTableRecord
  2
*Paper_Space
340
1E
 70
0
280
1
281
0
  0
ENDTAB
  0
ENDSEC
  0
SECTION
  2
BLOCKS
  0
BLOCK
  5
18
330
17
100
AcDbEntity
  8
0
100
AcDbBlockBegin
  2
*Model_Space
 70
0
 10
0.0
 20
0.0
 30
0.0
  3
*Model_Space
  1

  0
ENDBLK
  5
19
330
17
100
AcDbEntity
  8
0
100
AcDbBlockEnd
  0
BLOCK
  5
1C
330
1B
100
AcDbEntity
  8
0
100
AcDbBlockBegin
  2
*Paper_Space
 70
0
 10
0.0
 20
0.0
 30
0.0
  3
*Paper_Space
  1

  0
ENDBLK
  5
1D
330
1B
100
AcDbEntity
  8
0
100
AcDbBlockEnd
  0
ENDSEC
  0
SECTION
  2
ENTITIES
  0
LWPOLYLINE
  5
2D
330
17
100
AcDbEntity
  8
0
100
AcDbPolyline
 90
18
 70
0
 10
-59.04748309575359
 20
1030.958127020337
 10
-50.94708875682681
 20
1047.032442295144
 10
-50.94708875682681
 20
1047.032442295144
 10
-36.65880851255395
 20
1039.832091771654
 10
-36.65880851255395
 20
1039.832091771654
 10
-27.65837035819231
 20
1057.69244207699
 10
-27.65837035819231
 20
1057.69244207699
 10
-40.47080603957158
 20
1065.492537711594
 10
-40.47080603957158
 20
1065.492537711594
 42
0.1111502771542294
 10
-249.7034701359055
 20
1101.83642370439
 10
-249.7034701359055
 20
1101.83642370439
 10
-249.9745979986421
 20
1073.837736419389
 10
-249.9745979986421
 20
1073.837736419389
 10
-233.9753481215396
 20
1073.682806212199
 10
-233.9753481215396
 20
1073.682806212199
 10
-234.0754079850581
 20
1063.349877650274
 10
-234.0754079850581
 20
1063.349877650274
 42
-0.1011235955053837
 10
-59.04748309575359
 20
1030.958127020337
  0
LWPOLYLINE
  5
2E
330
17
100
AcDbEntity
  8
0
100
AcDbPolyline
 90
18
 70
0
 10
-720.3425875021037
 20
1040.496030731029
 10
-712.4527822307465
 20
1047.136821040786
 10
-712.4527822307465
 20
1047.136821040786
 10
-702.1495665060601
 20
1034.895753042879
 10
-702.1495665060601
 20
1034.895753042879
 10
-678.4324972600838
 20
1054.858233509613
 10
-678.4324972600838
 20
1054.858233509613
 10
-689.3796639676351
 20
1067.864368257353
 10
-689.3796639676351
 20
1067.864368257353
 42
0.1151101252932248
 10
-890.8517516235765
 20
1162.199094208802
 10
-890.8517516235765
 20
1162.199094208802
 10
-894.147144309773
 20
1145.521552811974
 10
-894.147144309773
 20
1145.521552811974
 10
-877.4696029129449
 20
1142.226160125775
 10
-877.4696029129449
 20
1142.226160125775
 10
-881.8804911419116
 20
1119.903245061679
 10
-881.8804911419116
 20
1119.903245061679
 42
-0.122222222222602
 10
-720.3425875021037
 20
1040.496030731029
  0
LWPOLYLINE
  5
2F
330
17
100
AcDbEntity
  8
0
100
AcDbPolyline
 90
30
 70
0
 10
-419.354150982887
 20
1089.459091135205
 10
-491.9572651697498
 20
1130.702730770467
 10
-491.9572651697498
 20
1130.702730770467
 10
-484.5482281095147
 20
1143.745206372862
 10
-484.5482281095147
 20
1143.745206372862
 10
-490.6491287989975
 20
1271.651573827364
 10
-490.6491287989975
 20
1271.651573827364
 10
-490.7138276830782
 20
1273.007996372543
 10
-490.7138276830782
 20
1273.007996372543
 10
-495.2275432315749
 20
1275.158896636908
 10
-495.2275432315749
 20
1275.158896636908
 10
-502.1104240775463
 20
1260.715006881715
 10
-502.1104240775463
 20
1260.715006881715
 10
-533.7064329170299
 20
1275.771308732277
 10
-533.7064329170299
 20
1275.771308732277
 10
-534.8957181845918
 20
934.0479658608007
 10
-534.8957181845918
 20
934.0479658608007
 10
-521.0772072288669
 20
927.4630939191716
 10
-521.0772072288669
 20
927.4630939191716
 10
-514.6245064357696
 20
941.0042405646658
 10
-514.6245064357696
 20
941.0042405646658
 10
-434.2803696725099
 20
902.7182158589518
 10
-434.2803696725099
 20
902.7182158589518
 10
-440.7330704656081
 20
889.1770692134569
 10
-440.7330704656081
 20
889.1770692134569
 10
-424.4836944910153
 20
881.4338282617415
 10
-424.4836944910153
 20
881.4338282617415
 10
-418.0309936979183
 20
894.9749749072331
 10
-418.0309936979183
 20
894.9749749072331
 10
-419.354150982887
 20
1089.459091135205
  0
LWPOLYLINE
  5
30
330
17
100
AcDbEntity
  8
0
100
AcDbPolyline
 90
28
 70
0
 10
-551.100862088212
 20
1102.706803942965
 10
-564.9193730439341
 20
1109.291675884598
 10
-564.9193730439341
 20
1109.291675884598
 10
-571.3720738370326
 20
1095.750529239104
 10
-571.3720738370326
 20
1095.750529239104
 10
-651.7162106002919
 20
1134.036553944817
 10
-651.7162106002919
 20
1134.036553944817
 10
-645.2635098071931
 20
1147.577700590312
 10
-645.2635098071931
 20
1147.577700590312
 10
-661.5128857817864
 20
1155.320941542028
 10
-661.5128857817864
 20
1155.320941542028
 10
-667.9655865748842
 20
1141.779794896536
 10
-667.9655865748842
 20
1141.779794896536
 10
-666.642429289914
 20
947.295678668564
 10
-666.642429289914
 20
947.295678668564
 10
-594.0393151030519
 20
906.0520390333024
 10
-594.0393151030519
 20
906.0520390333024
 10
-601.4483521632873
 20
893.009563430906
 10
-601.4483521632873
 20
893.009563430906
 10
-595.2827525897233
 20
763.7467734312273
 10
-595.2827525897233
 20
763.7467734312273
 10
-590.7690370412259
 20
761.5958731668617
 10
-590.7690370412259
 20
761.5958731668617
 10
-583.8861561952548
 20
776.0397629220535
 10
-583.8861561952548
 20
776.0397629220535
 10
-552.2901473557698
 20
760.9834610714934
 10
-552.2901473557698
 20
760.9834610714934
 10
-551.100862088212
 20
1102.706803942965
  0
LWPOLYLINE
  5
31
330
17
100
AcDbEntity
  8
0
100
AcDbPolyline
 90
36
 70
0
 10
-544.0691758890526
 20
1217.869844536271
 10
-541.9713659170536
 20
1224.548107283527
 10
-541.9713659170536
 20
1224.548107283527
 10
-557.2359664822088
 20
1229.343101505239
 10
-557.2359664822088
 20
1229.343101505239
 10
-548.5450394553561
 20
1257.010190029583
 10
-548.5450394553561
 20
1257.010190029583
 10
-614.5450230864931
 20
1257.056673312769
 10
-614.5450230864931
 20
1257.056673312769
 10
-621.4378272802039
 20
1235.113810000357
 10
-621.4378272802039
 20
1235.113810000357
 10
-639.5645404513263
 20
1240.80786563864
 10
-639.5645404513263
 20
1240.80786563864
 10
-634.455977052399
 20
1257.070696445256
 10
-634.455977052399
 20
1257.070696445256
 10
-1042.127108821007
 20
1257.357816102381
 10
-1042.127108821007
 20
1257.357816102381
 10
-1046.922103042719
 20
1242.093215537225
 10
-1046.922103042719
 20
1242.093215537225
 10
-1032.611540012886
 20
1237.59790845437
 10
-1032.611540012886
 20
1237.59790845437
 10
-1059.283695371158
 20
1152.688567810692
 10
-1059.283695371158
 20
1152.688567810692
 10
-1073.594258400991
 20
1157.183874893547
 10
-1073.594258400991
 20
1157.183874893547
 10
-1078.988626900417
 20
1140.011199257747
 10
-1078.988626900417
 20
1140.011199257747
 10
-1064.678063870584
 20
1135.515892174892
 10
-1064.678063870584
 20
1135.515892174892
 10
-911.6781018166873
 20
1135.408135472923
 10
-911.6781018166873
 20
1135.408135472923
 10
-894.774204689006
 20
1212.578455297924
 10
-894.774204689006
 20
1212.578455297924
 10
-880.1216123171469
 20
1209.368854577523
 10
-880.1216123171469
 20
1209.368854577523
 10
-544.0691758890526
 20
1217.869844536271
  0
LWPOLYLINE
  5
32
330
17
100
AcDbEntity
  8
0
100
AcDbPolyline
 90
36
 70
0
 10
-10.20907799694277
 20
1204.981689485174
 10
-8.26781847869023
 20
1209.58945591619
 10
-8.26781847869023
 20
1209.58945591619
 10
-23.01267105793903
 20
1215.801486374599
 10
-23.01267105793903
 20
1215.801486374599
 10
-10.97686204477151
 20
1244.369638246895
 10
-10.97686204477151
 20
1244.369638246895
 10
-82.78625616501022
 20
1245.53645387891
 10
-82.78625616501022
 20
1245.53645387891
 10
-90.5512942380217
 20
1227.105388154849
 10
-90.5512942380217
 20
1227.105388154849
 10
-108.0608066758794
 20
1234.482174324206
 10
-108.0608066758794
 20
1234.482174324206
 10
-103.2634411997299
 20
1245.869183320415
 10
-103.2634411997299
 20
1245.869183320415
 10
-430.2202819663103
 20
1251.181835759402
 10
-430.2202819663103
 20
1251.181835759402
 10
-436.4323124247193
 20
1236.436983180152
 10
-436.4323124247193
 20
1236.436983180152
 10
-422.6090131316729
 20
1230.613204625394
 10
-422.6090131316729
 20
1230.613204625394
 10
-456.3869287492722
 20
1150.438068725725
 10
-456.3869287492722
 20
1150.438068725725
 10
-470.2102280423184
 20
1156.261847280483
 10
-470.2102280423184
 20
1156.261847280483
 10
-477.1987623080287
 20
1139.673888128827
 10
-477.1987623080287
 20
1139.673888128827
 10
-463.3754630149825
 20
1133.850109574069
 10
-463.3754630149825
 20
1133.850109574069
 10
-293.1651243860078
 20
1128.332807352017
 10
-293.1651243860078
 20
1128.332807352017
 10
-260.9402163830118
 20
1204.821730106874
 10
-260.9402163830118
 20
1204.821730106874
 10
-247.1169170899658
 20
1198.997951552115
 10
-247.1169170899658
 20
1198.997951552115
 10
-10.20907799694277
 20
1204.981689485174
  0
LWPOLYLINE
  5
33
330
17
100
AcDbEntity
  8
0
100
AcDbPolyline
 90
38
 70
0
 10
224.8586085237886
 20
906.5063605279227
 10
224.5936855208685
 20
530.3514796206172
 10
224.5936855208685
 20
530.3514796206172
 10
239.8582860860241
 20
525.5564853989052
 10
239.8582860860241
 20
525.5564853989052
 10
244.3535931688791
 20
539.8670484287387
 10
244.3535931688791
 20
539.8670484287387
 10
329.2629338125571
 20
513.1948930704663
 10
329.2629338125571
 20
513.1948930704663
 10
324.7676267297023
 20
498.8843300406333
 10
324.7676267297023
 20
498.8843300406333
 10
341.9403023655022
 20
493.4899615412075
 10
341.9403023655022
 20
493.4899615412075
 10
346.4356094483571
 20
507.8005245710405
 10
346.4356094483571
 20
507.8005245710405
 10
346.5433661503259
 20
660.8004866249375
 10
346.5433661503259
 20
660.8004866249375
 10
269.3730463253248
 20
677.7043837526189
 10
269.3730463253248
 20
677.7043837526189
 10
272.5826470457261
 20
692.3569761244778
 10
272.5826470457261
 20
692.3569761244778
 10
264.081657086978
 20
1028.409412552572
 10
264.081657086978
 20
1028.409412552572
 10
257.4033943397224
 20
1030.507222524571
 10
257.4033943397224
 20
1030.507222524571
 10
252.6084001180107
 20
1015.242621959416
 10
252.6084001180107
 20
1015.242621959416
 10
224.941311593666
 20
1023.933548986268
 10
224.941311593666
 20
1023.933548986268
 10
224.8948283104807
 20
957.9335653551318
 10
224.8948283104807
 20
957.9335653551318
 10
246.8376916228919
 20
951.040761161421
 10
246.8376916228919
 20
951.040761161421
 10
241.1436359846091
 20
932.9140479902985
 10
241.1436359846091
 20
932.9140479902985
 10
224.8808051779935
 20
938.0226113892259
 10
224.8808051779935
 20
938.0226113892259
 10
224.8586085237886
 20
906.5063605279227
  0
LWPOLYLINE
  5
34
330
17
100
AcDbEntity
  8
0
100
AcDbPolyline
 90
36
 70
0
 10
-84.82273211443746
 20
610.8674407793609
 10
-163.9125564505254
 20
622.9007149173607
 10
-163.9125564505254
 20
622.9007149173607
 10
-161.6563175496375
 20
637.7300569804191
 10
-161.6563175496375
 20
637.7300569804191
 10
-169.8980620455909
 20
1052.043464505791
 10
-169.8980620455909
 20
1052.043464505791
 10
-174.6724377130323
 20
1053.528502211085
 10
-174.6724377130323
 20
1053.528502211085
 10
-179.424558369971
 20
1038.250500075271
 10
-179.424558369971
 20
1038.250500075271
 10
-211.8903129085728
 20
1048.348756471267
 10
-211.8903129085728
 20
1048.348756471267
 10
-211.8358259572929
 20
1004.848790595749
 10
-211.8358259572929
 20
1004.848790595749
 10
-186.1153715690935
 20
996.8486148190027
 10
-186.1153715690935
 20
996.8486148190027
 10
-191.7585148492083
 20
978.7059872827253
 10
-191.7585148492083
 20
978.7059872827253
 10
-211.8108926524624
 20
984.9431456449574
 10
-211.8108926524624
 20
984.9431456449574
 10
-211.1961172121721
 20
494.1336944206512
 10
-211.1961172121721
 20
494.1336944206512
 10
-194.0083648093829
 20
488.7875586815952
 10
-194.0083648093829
 20
488.7875586815952
 10
-189.5532516935028
 20
503.1106856839195
 10
-189.5532516935028
 20
503.1106856839195
 10
-101.7047394125806
 20
475.7859919065216
 10
-101.7047394125806
 20
475.7859919065216
 10
-106.1598525284606
 20
461.4628649041966
 10
-106.1598525284606
 20
461.4628649041966
 10
-88.97210012567143
 20
456.1167291651403
 10
-88.97210012567143
 20
456.1167291651403
 10
-84.51698700979136
 20
470.4398561674653
 10
-84.51698700979136
 20
470.4398561674653
 10
-84.82273211443746
 20
610.8674407793609
  0
LWPOLYLINE
  5
35
330
17
100
AcDbEntity
  8
0
100
AcDbPolyline
 90
36
 70
0
 10
-27.40680406072926
 20
997.8490879250143
 10
-44.59455646351848
 20
1003.19522366407
 10
-44.59455646351848
 20
1003.19522366407
 10
-49.04966957939855
 20
988.872096661746
 10
-49.04966957939855
 20
988.872096661746
 10
-136.8981818603213
 20
1016.196790439144
 10
-136.8981818603213
 20
1016.196790439144
 10
-132.4430687444412
 20
1030.519917441469
 10
-132.4430687444412
 20
1030.519917441469
 10
-149.6308211472304
 20
1035.866053180526
 10
-149.6308211472304
 20
1035.866053180526
 10
-154.0859342631105
 20
1021.5429261782
 10
-154.0859342631105
 20
1021.5429261782
 10
-153.7801891584644
 20
881.1153415663047
 10
-153.7801891584644
 20
881.1153415663047
 10
-74.69036482237618
 20
869.0820674283049
 10
-74.69036482237618
 20
869.0820674283049
 10
-76.94660372326415
 20
854.2527253652465
 10
-76.94660372326415
 20
854.2527253652465
 10
-68.70485922731066
 20
439.9393178398759
 10
-68.70485922731066
 20
439.9393178398759
 10
-63.9304835598692
 20
438.4542801345824
 10
-63.9304835598692
 20
438.4542801345824
 10
-59.17836290293045
 20
453.7322822703952
 10
-59.17836290293045
 20
453.7322822703952
 10
-26.71260836432859
 20
443.6340258744003
 10
-26.71260836432859
 20
443.6340258744003
 10
-26.76709531560855
 20
487.1339917499162
 10
-26.76709531560855
 20
487.1339917499162
 10
-52.48754970380787
 20
495.1341675266629
 10
-52.48754970380787
 20
495.1341675266629
 10
-46.8444064236931
 20
513.2767950629404
 10
-46.8444064236931
 20
513.2767950629404
 10
-26.79202862043897
 20
507.0396367007083
 10
-26.79202862043897
 20
507.0396367007083
 10
-27.40680406072926
 20
997.8490879250143
  0
LWPOLYLINE
  5
36
330
17
100
AcDbEntity
  8
0
100
AcDbPolyline
 90
36
 70
0
 10
-420.6348973170024
 20
868.8665581136127
 10
-435.3797498962515
 20
875.0785885720217
 10
-435.3797498962515
 20
875.0785885720217
 10
-441.2035284510101
 20
861.2552892789754
 10
-441.2035284510101
 20
861.2552892789754
 10
-521.3786643506791
 20
895.0332048965746
 10
-521.3786643506791
 20
895.0332048965746
 10
-515.5548857959207
 20
908.8565041896208
 10
-515.5548857959207
 20
908.8565041896208
 10
-532.1428449475762
 20
915.8450384553312
 10
-532.1428449475762
 20
915.8450384553312
 10
-537.9666235023348
 20
902.0217391622848
 10
-537.9666235023348
 20
902.0217391622848
 10
-543.4839257243863
 20
731.811400533309
 10
-543.4839257243863
 20
731.811400533309
 10
-466.9950029695298
 20
699.5864925303123
 10
-466.9950029695298
 20
699.5864925303123
 10
-472.8187815242884
 20
685.7631932372657
 10
-472.8187815242884
 20
685.7631932372657
 10
-466.8350435912298
 20
448.8553541442335
 10
-466.8350435912298
 20
448.8553541442335
 10
-462.2272771602142
 20
446.9140946259811
 10
-462.2272771602142
 20
446.9140946259811
 10
-456.0152467018046
 20
461.6589472052303
 10
-456.0152467018046
 20
461.6589472052303
 10
-427.447094829509
 20
449.6231381920627
 10
-427.447094829509
 20
449.6231381920627
 10
-426.2802791974934
 20
521.4325323123039
 10
-426.2802791974934
 20
521.4325323123039
 10
-444.7113449215549
 20
529.1975703853152
 10
-444.7113449215549
 20
529.1975703853152
 10
-437.3345587521943
 20
546.7070828231739
 10
-437.3345587521943
 20
546.7070828231739
 10
-425.9475497559889
 20
541.9097173470243
 10
-425.9475497559889
 20
541.9097173470243
 10
-420.6348973170024
 20
868.8665581136127
  0
LWPOLYLINE
  5
37
330
17
100
AcDbEntity
  8
0
100
AcDbPolyline
 90
16
 70
0
 10
-580.530827033819
 20
558.589316615979
 10
-567.7765841988582
 20
578.8413360621269
 10
-567.7765841988582
 20
578.8413360621269
 10
-553.3915776041542
 20
569.7819991510279
 10
-553.3915776041542
 20
569.7819991510279
 10
-545.3980450355289
 20
582.4746520287995
 10
-545.3980450355289
 20
582.4746520287995
 42
0.1706161137441092
 10
-738.5744688926148
 20
667.3502625762096
 10
-738.5744688926148
 20
667.3502625762096
 10
-742.4261209425644
 20
629.5459668349828
 10
-742.4261209425644
 20
629.5459668349828
 10
-726.5085227357882
 20
627.9242186034634
 10
-726.5085227357882
 20
627.9242186034634
 10
-727.0153190581644
 20
622.9499691637859
 10
-727.0153190581644
 20
622.9499691637859
 42
-0.1500000000000333
 10
-580.530827033819
 20
558.589316615979
  0
LWPOLYLINE
  5
38
330
17
100
AcDbEntity
  8
0
100
AcDbPolyline
 90
24
 70
0
 10
487.9980995710361
 20
383.1303942040298
 10
520.6249307898144
 20
388.079119759258
 10
520.6249307898144
 20
388.079119759258
 10
517.9256259414512
 20
405.8755731513752
 10
517.9256259414512
 20
405.8755731513752
 10
523.021107645308
 20
406.6484382926399
 10
523.0211076453079
 20
406.6484382926398
 42
-0.12410886426201
 10
531.4997858369622
 20
572.1578398870547
 10
531.4997858369625
 20
572.1578398870547
 10
522.0270124102897
 20
575.3619877624852
 10
522.0270124102897
 20
575.3619877624852
 10
528.114893373439
 20
593.3602572731476
 10
528.114893373439
 20
593.3602572731476
 10
537.5876668001061
 20
590.1561093978092
 10
537.5876668001061
 20
590.1561093978092
 42
-0.12410886426201
 10
631.3213058318069
 20
726.8281801140848
 10
631.3213058318069
 20
726.8281801140848
 10
627.7412485028905
 20
730.535530089774
 10
627.7412485028905
 20
730.535530089774
 10
640.6895201062771
 20
743.0392200446361
 10
640.6895201062771
 20
743.0392200446361
 10
617.7660885223903
 20
766.7777179840267
 10
617.7660885223903
 20
766.7777179840267
 42
0.2982706775813014
 10
487.9980995710361
 20
383.1303942040299
  0
LWPOLYLINE
  5
39
330
17
100
AcDbEntity
  8
0
100
AcDbPolyline
 90
84
 70
0
 10
668.9137563219524
 20
86.84082586973616
 42
0.0287063982385544
 10
696.9528631493578
 20
67.37087822391703
 10
696.9528631493577
 20
67.37087822391702
 10
716.6717496382283
 20
114.9764814206045
 10
716.6717496382283
 20
114.9764814206045
 10
735.1493402884283
 20
107.3228127733045
 10
735.1493402884283
 20
107.3228127733045
 10
714.4844349407281
 20
57.43331801770448
 10
714.484434940728
 20
57.43331801770461
 42
0.1137959555541283
 10
843.8546276912527
 20
23.68360353457928
 10
843.8546276912527
 20
23.68360353457926
 10
843.8546276912283
 20
75.09327920440448
 10
843.8546276912283
 20
75.09327920440448
 10
860.8546276912283
 20
75.09327920440448
 10
860.8546276912283
 20
75.09327920440448
 10
860.8546276912283
 20
23.6836035346045
 10
860.8546276912283
 20
23.68360353460457
 42
0.1137959555541283
 10
990.2248204419727
 20
57.4333180178362
 10
990.2248204419725
 20
57.43331801783613
 10
969.5599150940282
 20
107.3228127733045
 10
969.5599150940282
 20
107.3228127733045
 10
988.0375057442282
 20
114.9764814206045
 10
988.0375057442282
 20
114.9764814206045
 10
1007.756392233228
 20
67.37087822400456
 10
1007.756392233228
 20
67.37087822400449
 42
0.0287063982385541
 10
1035.795499060656
 20
86.84082586985828
 10
1035.795499060656
 20
86.84082586985836
 42
0.0724364518599823
 10
1108.194576441228
 20
162.7150864198046
 10
1108.194576441228
 20
162.7150864198046
 10
1066.303345887428
 20
192.9279947673046
 10
1066.303345887428
 20
192.9279947673046
 10
1078.002499387228
 20
209.1492711471046
 10
1078.002499387228
 20
209.1492711471046
 10
1119.325955889428
 20
179.3458543603046
 10
1119.325955889427
 20
179.3458543603045
 42
0.109420242926146
 10
1172.452361553127
 20
327.4733128703045
 10
1172.452361553128
 20
327.4733128703046
 10
1123.138829014228
 20
328.3340837826046
 10
1123.138829014228
 20
328.3340837826046
 10
1123.487877143028
 20
348.3310376858046
 10
1123.487877143028
 20
348.3310376858046
 10
1174.431916042728
 20
347.4418061791046
 10
1174.431916042728
 20
347.4418061791046
 42
0.081811980704772
 10
1163.562436240249
 20
465.2189655620095
 10
1163.562436240249
 20
465.2189655620095
 42
0.0480556161649807
 10
1151.269917487228
 20
498.7563888667046
 10
1151.269917487228
 20
498.7563888667046
 10
1101.854153313528
 20
466.6654163886045
 10
1101.854153313528
 20
466.6654163886045
 10
1090.961372613228
 20
483.4388277475045
 10
1090.961372613228
 20
483.4388277475045
 10
1141.632929107528
 20
516.3453212941045
 10
1141.632929107528
 20
516.3453212941045
 42
0.1936932887736944
 10
1029.499206434633
 20
598.6288181950371
 10
1029.499206434633
 20
598.6288181950371
 42
0.1238160650423368
 10
675.2100489483767
 20
598.628818195185
 10
675.2100489483767
 20
598.6288181951849
 42
0.1936932887736939
 10
563.0763262749231
 20
516.3453212941715
 10
563.0763262749231
 20
516.3453212941715
 10
613.7478827692285
 20
483.4388277475045
 10
613.7478827692285
 20
483.4388277475045
 10
602.8551020689283
 20
466.6654163886045
 10
602.8551020689283
 20
466.6654163886045
 10
553.4393378952284
 20
498.7563888667046
 10
553.4393378952284
 20
498.7563888667045
 42
0.0480556161649856
 10
541.1468191422077
 20
465.21896556201
 10
541.1468191422077
 20
465.21896556201
 42
0.0818119807047726
 10
530.2773393397282
 20
347.4418061791047
 10
530.2773393397282
 20
347.4418061791046
 10
581.2213782394283
 20
348.3310376858046
 10
581.2213782394283
 20
348.3310376858046
 10
581.5704263682283
 20
328.3340837826046
 10
581.5704263682283
 20
328.3340837826046
 10
532.2568938293284
 20
327.4733128703046
 10
532.2568938293284
 20
327.4733128703047
 42
0.1094202429261452
 10
585.3832994930282
 20
179.3458543603047
 10
585.3832994930282
 20
179.3458543603046
 10
626.7067559952283
 20
209.1492711471046
 10
626.7067559952283
 20
209.1492711471046
 10
638.4059094950284
 20
192.9279947673046
 10
638.4059094950284
 20
192.9279947673046
 10
596.5146789412973
 20
162.7150864197374
 10
596.5146789412973
 20
162.7150864197375
 42
0.072436451859982
 10
668.9137563219524
 20
86.8408258697362
  0
LWPOLYLINE
  5
3A
330
17
100
AcDbEntity
  8
0
100
AcDbPolyline
 90
26
 70
0
 10
-20.58107115149619
 20
1406.317412128149
 10
-35.41187960218122
 20
1412.321337568983
 10
-35.41187960218122
 20
1412.321337568983
 10
-234.4031434263159
 20
1414.185988116381
 10
-234.4031434263159
 20
1414.185988116381
 10
-256.0861290196895
 20
1377.113247667002
 10
-256.0861290196895
 20
1377.113247667002
 10
-269.0341059499988
 20
1384.686218907827
 10
-269.0341059499988
 20
1384.686218907827
 10
-290.2384254242195
 20
1348.431883503183
 10
-290.2384254242195
 20
1348.431883503183
 10
-277.29044849404
 20
1340.858912262303
 10
-277.29044849404
 20
1340.858912262303
 10
-298.973434087414
 20
1303.786171812923
 10
-298.973434087414
 20
1303.786171812923
 10
-62.98379457738954
 20
1301.574827445188
 10
-62.98379457738954
 20
1301.574827445188
 10
-57.35511447660726
 20
1315.478710367705
 10
-57.35511447660726
 20
1315.478710367705
 10
-72.18592292729207
 20
1321.482635808539
 10
-72.18592292729207
 20
1321.482635808539
 10
-41.04055970296349
 20
1398.417454646466
 10
-41.04055970296349
 20
1398.417454646466
 10
-26.20975125227847
 20
1392.413529205632
 10
-26.20975125227847
 20
1392.413529205632
 10
-20.58107115149619
 20
1406.317412128149
  0
LWPOLYLINE
  5
3B
330
17
100
AcDbEntity
  8
0
100
AcDbPolyline
 90
26
 70
0
 10
-280.3402920075757
 20
1406.316272944023
 10
-295.2208887352751
 20
1412.195715181818
 10
-295.2208887352751
 20
1412.195715181818
 10
-494.2207910576455
 20
1412.39288434132
 10
-494.2207910576455
 20
1412.39288434132
 10
-515.5923702355951
 20
1375.139756256418
 10
-515.5923702355951
 20
1375.139756256418
 10
-528.6033491159878
 20
1382.603966099139
 10
-528.6033491159878
 20
1382.603966099139
 10
-549.5031366755161
 20
1346.173225234262
 10
-549.5031366755161
 20
1346.173225234262
 10
-536.492157795253
 20
1338.709015391485
 10
-536.492157795253
 20
1338.709015391485
 10
-557.8637369732025
 20
1301.455887306583
 10
-557.8637369732025
 20
1301.455887306583
 10
-321.8638528120052
 20
1301.222058554644
 10
-321.8638528120052
 20
1301.222058554644
 10
-316.3518757140721
 20
1315.172617986862
 10
-316.3518757140721
 20
1315.172617986862
 10
-331.2324724417717
 20
1321.052060224657
 10
-331.2324724417717
 20
1321.052060224657
 10
-300.7328658332083
 20
1398.2451557496
 10
-300.7328658332083
 20
1398.2451557496
 10
-285.8522691055089
 20
1392.365713511804
 10
-285.8522691055089
 20
1392.365713511804
 10
-280.3402920075757
 20
1406.316272944023
  0
LWPOLYLINE
  5
3C
330
17
100
AcDbEntity
  8
0
100
AcDbPolyline
 90
8
 70
0
 10
-244.5761706423144
 20
1261.074777464058
 10
-244.5761706423144
 20
1291.074777464058
 10
-244.5761706423144
 20
1291.074777464058
 10
-274.5761706423144
 20
1291.074777464058
 10
-274.5761706423144
 20
1291.074777464058
 10
-274.5761706423144
 20
1261.074777464058
 10
-274.5761706423144
 20
1261.074777464058
 10
-244.5761706423144
 20
1261.074777464058
  0
LWPOLYLINE
  5
3D
330
17
100
AcDbEntity
  8
0
100
AcDbPolyline
 90
8
 70
0
 10
-171.7109158588804
 20
1258.401833560314
 10
-171.7109158588804
 20
1288.401833560314
 10
-171.7109158588804
 20
1288.401833560314
 10
-201.7109158588804
 20
1288.401833560314
 10
-201.7109158588804
 20
1288.401833560314
 10
-201.7109158588804
 20
1258.401833560314
 10
-201.7109158588804
 20
1258.401833560314
 10
-171.7109158588804
 20
1258.401833560314
  0
LWPOLYLINE
  5
3E
330
17
100
AcDbEntity
  8
0
100
AcDbPolyline
 90
8
 70
0
 10
-118.0154630303734
 20
1260.106451059008
 10
-118.0154630303734
 20
1290.106451059008
 10
-118.0154630303734
 20
1290.106451059008
 10
-148.0154630303734
 20
1290.106451059008
 10
-148.0154630303734
 20
1290.106451059008
 10
-148.0154630303734
 20
1260.106451059008
 10
-148.0154630303734
 20
1260.106451059008
 10
-118.0154630303734
 20
1260.106451059008
  0
LWPOLYLINE
  5
3F
330
17
100
AcDbEntity
  8
0
100
AcDbPolyline
 90
8
 70
0
 10
-65.88598463964908
 20
1259.845803144928
 10
-65.88598463964908
 20
1289.845803144928
 10
-65.88598463964908
 20
1289.845803144928
 10
-95.88598463964908
 20
1289.845803144928
 10
-95.88598463964908
 20
1289.845803144928
 10
-95.88598463964908
 20
1259.845803144928
 10
-95.88598463964908
 20
1259.845803144928
 10
-65.88598463964908
 20
1259.845803144928
  0
LWPOLYLINE
  5
40
330
17
100
AcDbEntity
  8
0
100
AcDbPolyline
 90
28
 70
0
 10
279.7356143038141
 20
1067.059966974991
 10
278.9549489857322
 20
929.4940171121625
 10
278.9549489857322
 20
929.4940171121625
 10
358.023973534471
 20
917.3248200590824
 10
358.023973534471
 20
917.3248200590824
 10
355.7422490870206
 20
902.4993779561993
 10
355.7422490870206
 20
902.4993779561993
 10
360.9287905634649
 20
482.92256609611
 10
360.9287905634649
 20
482.92256609611
 10
370.4338640052986
 20
479.8155451973478
 10
370.4338640052986
 20
479.8155451973478
 10
375.4050974433182
 20
495.0236627042821
 10
375.4050974433182
 20
495.0236627042821
 10
407.7223471455535
 20
484.4597916484907
 10
407.7223471455535
 20
484.4597916484907
 10
406.061085707431
 20
1041.547709633586
 10
406.061085707431
 20
1041.547709633586
 10
389.9024608563134
 20
1046.829645161482
 10
389.9024608563134
 20
1046.829645161482
 10
385.2419295081702
 20
1032.572034998731
 10
385.2419295081702
 20
1032.572034998731
 10
296.8447464991152
 20
1061.467329357219
 10
296.8447464991152
 20
1061.467329357219
 10
301.5052778472584
 20
1075.72493951997
 10
301.5052778472584
 20
1075.72493951997
 10
284.3961456519576
 20
1081.317577137742
 10
284.3961456519576
 20
1081.317577137742
 10
279.7356143038141
 20
1067.059966974991
  0
LWPOLYLINE
  5
41
330
17
100
AcDbEntity
  8
0
100
AcDbPolyline
 90
20
 70
0
 10
-79.31402584844355
 20
1091.223351788985
 42
-0.0111333460761533
 10
-63.87603125170944
 20
1085.015849731036
 10
-63.87603125170941
 20
1085.015849731036
 10
-58.26249920358355
 20
1093.66670986762
 10
-58.26249920358355
 20
1093.66670986762
 10
-44.84065119524731
 20
1084.957289907607
 10
-44.84065119524731
 20
1084.957289907607
 10
-27.9661500227318
 20
1110.962120423912
 10
-27.9661500227318
 20
1110.962120423912
 10
-42.22686353164832
 20
1120.215879131374
 10
-42.22686353164826
 20
1120.215879131374
 42
0.1151101252932249
 10
-262.4398667187202
 20
1151.779716859201
 10
-262.4398667187202
 20
1151.779716859201
 10
-260.7348722776857
 20
1134.865433133452
 10
-260.7348722776857
 20
1134.865433133452
 10
-243.8205885519351
 20
1136.570427574486
 10
-243.8205885519351
 20
1136.570427574486
 10
-241.5384508442405
 20
1113.930632535431
 10
-241.5384508442405
 20
1113.930632535431
 42
-0.1109379182286407
 10
-79.31402584844349
 20
1091.223351788985
  0
LWPOLYLINE
  5
42
330
17
100
AcDbEntity
  8
0
100
AcDbPolyline
 90
16
 70
0
 10
-290.5085408212334
 20
898.6201964038869
 10
-327.792596377085
 20
891.2785888611105
 10
-327.792596377085
 20
891.2785888611105
 10
-324.7013932011595
 20
875.5800391534458
 10
-324.7013932011595
 20
875.5800391534458
 10
-329.6071899848671
 20
874.6140381609812
 10
-329.607189984867
 20
874.6140381609812
 42
-0.1500000000000333
 10
-348.4467727692837
 20
715.7270653768044
 10
-348.4467727692837
 20
715.7270653768044
 10
-325.3554013168504
 20
709.4339289262045
 10
-325.3554013168504
 20
709.4339289262045
 10
-329.82541526214
 20
693.0321309964851
 10
-329.82541526214
 20
693.0321309964851
 10
-315.3532406181762
 20
689.0880010447747
 10
-315.3532406181763
 20
689.0880010447747
 42
0.170616113744109
 10
-290.5085408212334
 20
898.6201964038867
  0
LWPOLYLINE
  5
43
330
17
100
AcDbEntity
  8
0
100
AcDbPolyline
 90
18
 70
0
 10
-99.7085561892874
 20
855.8745266779482
 10
-127.4234479555793
 20
851.8889559052732
 10
-127.4234479555793
 20
851.8889559052732
 10
-125.1459789425444
 20
836.0518748960203
 10
-125.1459789425444
 20
836.0518748960203
 10
-135.3741726362779
 20
834.5809981487786
 10
-135.3741726362779
 20
834.5809981487786
 42
-0.1011235955053837
 10
-140.7997607778097
 20
656.6637055849402
 10
-140.7997607778097
 20
656.66370558494
 10
-123.6814132987467
 20
651.0993386320828
 10
-123.6814132987467
 20
651.0993386320828
 10
-128.6275172568425
 20
635.8830297618036
 10
-128.6275172568425
 20
635.8830297618036
 10
-109.6071311689956
 20
629.7003998141848
 10
-109.6071311689956
 20
629.7003998141848
 10
-103.8440336021732
 20
643.5491075673914
 10
-103.8440336021732
 20
643.5491075673914
 42
0.1111502771542292
 10
-99.70855618928732
 20
855.8745266779478
  0
LWPOLYLINE
  5
44
330
17
100
AcDbEntity
  8
0
100
AcDbPolyline
 90
104
 70
0
 10
-67.00563669937935
 20
99.4991330511651
 10
-81.91182253614733
 20
108.9954207497598
 10
-81.91182253614733
 20
108.9954207497598
 10
-72.77772919424734
 20
123.3330753285598
 10
-72.77772919424734
 20
123.3330753285598
 10
-56.75329172376826
 20
113.124382770032
 10
-56.75329172376831
 20
113.124382770032
 42
0.0856241616468324
 10
-32.12983048118406
 20
167.4424380572116
 10
-32.12983048118403
 20
167.4424380572116
 42
0.0447007374242568
 10
-24.71098836434848
 20
211.8762753111602
 10
-24.71098836434851
 20
211.8762753111602
 10
-42.53820822984846
 20
211.4094531299601
 10
-42.53820822984846
 20
211.4094531299601
 10
-42.98321635114837
 20
228.4036276545601
 10
-42.98321635114837
 20
228.4036276545601
 10
-23.98972717655443
 20
228.900989672354
 10
-23.9897271765544
 20
228.9009896723539
 42
0.1240451443308852
 10
-53.10305065659474
 20
348.7793789987041
 10
-53.10305065659474
 20
348.7793789987041
 10
-67.48411911934738
 20
338.8797750745599
 10
-67.48411911934738
 20
338.8797750745599
 10
-78.25749029084731
 20
354.5301576130598
 10
-78.25749029084731
 20
354.5301576130598
 10
-62.60710775240966
 20
365.3035287844724
 10
-62.60710775240966
 20
365.3035287844724
 42
0.1064341688553443
 10
-139.935586580719
 20
445.0067102717688
 10
-139.935586580719
 20
445.0067102717688
 10
-146.2329768892483
 20
430.1709884152599
 10
-146.2329768892483
 20
430.1709884152599
 10
-163.7225691048483
 20
437.5948798565599
 10
-163.7225691048483
 20
437.5948798565599
 10
-156.2986776635327
 20
455.0844720721279
 10
-156.2986776635327
 20
455.0844720721279
 42
0.0975942636148707
 10
-253.0971141060127
 20
487.2712039460954
 10
-253.0971141060127
 20
487.2712039460954
 42
0.0190089743277476
 10
-267.3705101034429
 20
488.5366474634866
 10
-267.3705101034429
 20
488.5366474634866
 10
-267.3705101035484
 20
469.53664746356
 10
-267.3705101035484
 20
469.53664746356
 10
-286.3705101035484
 20
469.53664746356
 10
-286.3705101035484
 20
469.53664746356
 10
-286.3705101035484
 20
488.53664746356
 10
-286.3705101035484
 20
488.53664746356
 42
0.0190089743277436
 10
-300.6439061010149
 20
487.271203946096
 10
-300.6439061010149
 20
487.271203946096
 42
0.0975942636148706
 10
-397.442342543564
 20
455.0844720721279
 10
-397.442342543564
 20
455.0844720721279
 10
-390.0184511022484
 20
437.5948798565599
 10
-390.0184511022484
 20
437.5948798565599
 10
-407.5080433178483
 20
430.1709884152599
 10
-407.5080433178483
 20
430.1709884152599
 10
-413.8054336262483
 20
445.00671027186
 10
-413.8054336262483
 20
445.00671027186
 42
0.1064341688553446
 10
-491.1339124546869
 20
365.3035287844724
 10
-491.1339124546869
 20
365.3035287844725
 10
-475.4835299162484
 20
354.5301576130598
 10
-475.4835299162484
 20
354.5301576130598
 10
-486.2569010877483
 20
338.8797750745599
 10
-486.2569010877483
 20
338.8797750745599
 10
-500.6379695504482
 20
348.7793789986599
 10
-500.6379695504484
 20
348.77937899866
 42
0.1240451443308856
 10
-529.7512930305425
 20
228.9009896723541
 10
-529.7512930305425
 20
228.9009896723541
 10
-510.7578038559482
 20
228.4036276545601
 10
-510.7578038559482
 20
228.4036276545601
 10
-511.2028119772483
 20
211.4094531299601
 10
-511.2028119772483
 20
211.4094531299601
 10
-529.0300318427483
 20
211.8762753111602
 10
-529.0300318427483
 20
211.8762753111603
 42
0.0447007374238191
 10
-521.611189725981
 20
167.4424380576107
 10
-521.611189725981
 20
167.4424380576107
 42
0.0856241616472702
 10
-496.9877284832484
 20
113.1243827699599
 10
-496.9877284832484
 20
113.1243827699598
 10
-480.9632910128483
 20
123.3330753285598
 10
-480.9632910128483
 20
123.3330753285598
 10
-471.8291976709483
 20
108.9954207497598
 10
-471.8291976709483
 20
108.9954207497598
 10
-486.7353835076483
 20
99.49913305105981
 10
-486.7353835076483
 20
99.49913305105983
 42
0.0637653439233025
 10
-454.1249864708254
 20
69.13498136263505
 10
-454.1249864708254
 20
69.13498136263497
 42
0.0989501659931988
 10
-380.0042722742621
 20
35.57778935972019
 10
-380.0042722742623
 20
35.57778935972021
 42
0.0101488560185791
 10
-361.8705101035484
 20
31.75871106835967
 10
-361.8705101035483
 20
31.75871106835969
 10
-361.8705101035483
 20
47.57200697095977
 10
-361.8705101035483
 20
47.57200697095977
 10
-342.8705101035483
 20
47.57200697095977
 10
-342.8705101035483
 20
47.57200697095977
 10
-342.8705101033657
 20
28.57200697092689
 10
-342.8705101033659
 20
28.57200697092697
 42
0.0726643542843068
 10
-210.8705101035485
 20
28.57200697095965
 10
-210.8705101035484
 20
28.57200697095964
 10
-210.8705101035484
 20
47.57200697095977
 10
-210.8705101035484
 20
47.57200697095977
 10
-191.8705101035483
 20
47.57200697095977
 10
-191.8705101035483
 20
47.57200697095977
 10
-191.870510103489
 20
31.75871106840368
 10
-191.8705101034891
 20
31.75871106840367
 42
0.0101488560185791
 10
-173.736747932677
 20
35.5777893597396
 10
-173.7367479326772
 20
35.5777893597396
 42
0.0989501659931976
 10
-99.61603373627125
 20
69.1349813626348
 10
-99.61603373627122
 20
69.13498136263476
 42
0.063765343923304
 10
-67.00563669937938
 20
99.49913305116503
  0
LWPOLYLINE
  5
45
330
17
100
AcDbEntity
  8
0
100
AcDbPolyline
 90
22
 70
0
 10
-1098.763828365178
 20
609.3533638952154
 42
0.4050644828824918
 10
-1089.024582974438
 20
609.0767537685551
 10
-1089.024582974438
 20
609.0767537685551
 42
-0.2506580241390914
 10
-998.6695677887164
 20
632.1616144485929
 10
-998.6695677887164
 20
632.1616144485929
 42
0.347347773372578
 10
-689.5604878541027
 20
773.0151870745566
 10
-689.5604878541026
 20
773.0151870745566
 42
0.2418633240977885
 10
-689.5604878541509
 20
961.4642650499297
 10
-689.5604878541509
 20
961.4642650499295
 42
0.3473477733725779
 10
-998.6695677888212
 20
1102.317837675844
 10
-998.6695677888212
 20
1102.317837675844
 42
-0.2506580241390919
 10
-1089.024582974438
 20
1125.402698355969
 10
-1089.024582974438
 20
1125.402698355969
 42
0.4050644828824828
 10
-1098.763828365228
 20
1125.126088229301
 10
-1098.763828365228
 20
1125.126088229301
 42
0.1346754226291362
 10
-1146.435664658695
 20
1038.877384712467
 10
-1146.435664658695
 20
1038.877384712467
 42
0.0597030505562013
 10
-1166.771027643021
 20
867.2397260617387
 10
-1166.771027643022
 20
867.2397260617382
 42
0.0597030505562013
 10
-1146.435664658722
 20
695.6020674119663
 10
-1146.435664658722
 20
695.6020674119663
 42
0.1346754226291366
 10
-1098.763828365178
 20
609.3533638952152
  0
LINE
  5
46
330
17
100
AcDbEntity
  8
0
100
AcDbLine
 10
-484.5482281095147
 20
1143.745206372862
 30
0.0
 11
-477.1987623080287
 21
1139.673888128827
 31
0.0
  0
LINE
  5
47
330
17
100
AcDbEntity
  8
0
100
AcDbLine
 10
-62.98379457738954
 20
1301.574827445188
 30
0.0
 11
-65.88598463964908
 21
1289.845803144928
 31
0.0
  0
LINE
  5
48
330
17
100
AcDbEntity
  8
0
100
AcDbLine
 10
-424.4836944910153
 20
881.4338282617415
 30
0.0
 11
-435.3797498962515
 21
875.0785885720217
 31
0.0
  0
LINE
  5
49
330
17
100
AcDbEntity
  8
0
100
AcDbLine
 10
-427.447094829509
 20
449.6231381920627
 30
0.0
 11
-413.8054336262483
 21
445.00671027186
 31
0.0
  0
LINE
  5
4A
330
17
100
AcDbEntity
  8
0
100
AcDbLine
 10
-249.7034701359055
 20
1101.83642370439
 30
0.0
 11
-241.5384508442405
 21
1113.930632535431
 31
0.0
  0
LINE
  5
4B
330
17
100
AcDbEntity
  8
0
100
AcDbLine
 10
-103.2634411997299
 20
1245.869183320415
 30
0.0
 11
-95.88598463964908
 21
1259.845803144928
 31
0.0
  0
LINE
  5
4C
330
17
100
AcDbEntity
  8
0
100
AcDbLine
 10
-1078.988626900417
 20
1140.011199257747
 30
0.0
 11
-1089.024582974438
 21
1125.402698355969
 31
0.0
  0
LINE
  5
4D
330
17
100
AcDbEntity
  8
0
100
AcDbLine
 10
-269.0341059499988
 20
1384.686218907827
 30
0.0
 11
-285.8522691055089
 21
1392.365713511804
 31
0.0
  0
LINE
  5
4E
330
17
100
AcDbEntity
  8
0
100
AcDbLine
 10
-894.147144309773
 20
1145.521552811974
 30
0.0
 11
-911.6781018166873
 21
1135.408135472923
 31
0.0
  0
LINE
  5
4F
330
17
100
AcDbEntity
  8
0
100
AcDbLine
 10
-103.2634411997299
 20
1245.869183320415
 30
0.0
 11
-118.0154630303734
 21
1260.106451059008
 31
0.0
  0
LINE
  5
50
330
17
100
AcDbEntity
  8
0
100
AcDbLine
 10
341.9403023655022
 20
493.4899615412075
 30
0.0
 11
360.9287905634649
 21
482.92256609611
 31
0.0
  0
LINE
  5
51
330
17
100
AcDbEntity
  8
0
100
AcDbLine
 10
-76.94660372326415
 20
854.2527253652465
 30
0.0
 11
-99.70855618928732
 21
855.8745266779478
 31
0.0
  0
LINE
  5
52
330
17
100
AcDbEntity
  8
0
100
AcDbLine
 10
-171.7109158588804
 20
1288.401833560314
 30
0.0
 11
-148.0154630303734
 21
1290.106451059008
 31
0.0
  0
LINE
  5
53
330
17
100
AcDbEntity
  8
0
100
AcDbLine
 10
-533.7064329170299
 20
1275.771308732277
 30
0.0
 11
-548.5450394553561
 21
1257.010190029583
 31
0.0
  0
LINE
  5
54
330
17
100
AcDbEntity
  8
0
100
AcDbLine
 10
-88.97210012567143
 20
456.1167291651403
 30
0.0
 11
-68.70485922731066
 21
439.9393178398759
 31
0.0
  0
LINE
  5
55
330
17
100
AcDbEntity
  8
0
100
AcDbLine
 10
-234.0754079850581
 20
1063.349877650274
 30
0.0
 11
-211.8903129085728
 21
1048.348756471267
 31
0.0
  0
LINE
  5
56
330
17
100
AcDbEntity
  8
0
100
AcDbLine
 10
-666.642429289914
 20
947.295678668564
 30
0.0
 11
-689.5604878541509
 21
961.4642650499297
 31
0.0
  0
LINE
  5
57
330
17
100
AcDbEntity
  8
0
100
AcDbLine
 10
-298.973434087414
 20
1303.786171812923
 30
0.0
 11
-274.5761706423144
 21
1291.074777464058
 31
0.0
  0
LINE
  5
58
330
17
100
AcDbEntity
  8
0
100
AcDbLine
 10
-293.1651243860078
 20
1128.332807352017
 30
0.0
 11
-260.7348722776857
 21
1134.865433133452
 31
0.0
  0
LINE
  5
59
330
17
100
AcDbEntity
  8
0
100
AcDbLine
 10
520.6249307898144
 20
388.079119759258
 30
0.0
 11
530.2773393397282
 21
347.4418061791047
 31
0.0
  0
LINE
  5
5A
330
17
100
AcDbEntity
  8
0
100
AcDbLine
 10
-418.0309936979183
 20
894.9749749072331
 30
0.0
 11
-327.792596377085
 21
891.2785888611105
 31
0.0
  0
LINE
  5
5B
330
17
100
AcDbEntity
  8
0
100
AcDbLine
 10
-738.5744688926148
 20
667.3502625762096
 30
0.0
 11
-689.5604878541027
 21
773.0151870745566
 31
0.0
  0
LINE
  5
5C
330
17
100
AcDbEntity
  8
0
100
AcDbLine
 10
487.9980995710361
 20
383.1303942040299
 30
0.0
 11
407.7223471455535
 21
484.4597916484907
 31
0.0
  0
LINE
  5
5D
330
17
100
AcDbEntity
  8
0
100
AcDbLine
 10
224.5936855208685
 20
530.3514796206172
 30
0.0
 11
-26.79202862043897
 21
507.0396367007083
 31
0.0
  0
ENDSEC
  0
SECTION
  2
OBJECTS
  0
DICTIONARY
  5
A
330
0
100
AcDbDictionary
281
1
  3
ACAD_COLOR
350
B
  3
ACAD_GROUP
350
C
  3
ACAD_LAYOUT
350
D
  3
ACAD_MATERIAL
350
E
  3
ACAD_MLEADERSTYLE
350
F
  3
ACAD_MLINESTYLE
350
10
  3
ACAD_PLOTSETTINGS
350
11
  3
ACAD_PLOTSTYLENAME
350
12
  3
ACAD_SCALELIST
350
14
  3
ACAD_TABLESTYLE
350
15
  3
ACAD_VISUALSTYLE
350
16
  0
DICTIONARY
  5
B
330
A
100
AcDbDictionary
281
1
  0
DICTIONARY
  5
C
330
A
100
AcDbDictionary
281
1
  0
DICTIONARY
  5
D
330
A
100
AcDbDictionary
281
1
  3
Model
350
1A
  3
Layout1
350
1E
  0
DICTIONARY
  5
E
330
A
100
AcDbDictionary
281
1
  3
ByBlock
350
1F
  3
ByLayer
350
20
  3
Global
350
21
  0
DICTIONARY
  5
F
330
A
100
AcDbDictionary
281
1
  3
Standard
350
2C
  0
DICTIONARY
  5
10
330
A
100
AcDbDictionary
281
1
  3
Standard
350
22
  0
DICTIONARY
  5
11
330
A
100
AcDbDictionary
281
1
  0
ACDBDICTIONARYWDFLT
  5
12
330
A
100
AcDbDictionary
281
1
  3
Normal
350
13
100
AcDbDictionaryWithDefault
340
13
  0
ACDBPLACEHOLDER
  5
13
330
12
  0
DICTIONARY
  5
14
330
A
100
AcDbDictionary
281
1
  0
DICTIONARY
  5
15
330
A
100
AcDbDictionary
281
1
  0
DICTIONARY
  5
16
330
A
100
AcDbDictionary
281
1
  0
LAYOUT
  5
1A
330
D
100
AcDbPlotSettings
  1

  2
Adobe PDF
  4
A4
  6

 40
3.175
 41
3.175
 42
3.175
 43
3.175
 44
209.91
 45
297.03
 46
0.0
 47
0.0
 48
0.0
 49
0.0
140
0.0
141
0.0
142
1.0
143
1.0
 70
1024
 72
0
 73
1
 74
5
  7

 75
16
 76
0
 77
2
 78
300
147
1.0
148
0.0
149
0.0
100
AcDbLayout
  1
Model
 70
1
 71
0
 10
-3.175
 20
-3.175
 11
293.857
 21
206.735
 12
0.0
 22
0.0
 32
0.0
 14
29.068
 24
20.356
 34
0.0
 15
261.614
 25
183.204
 35
0.0
146
0.0
 13
0.0
 23
0.0
 33
0.0
 16
1.0
 26
0.0
 36
0.0
 17
0.0
 27
1.0
 37
0.0
 76
1
330
17
  0
LAYOUT
  5
1E
330
D
100
AcDbPlotSettings
  1

  2
Adobe PDF
  4
A4
  6

 40
3.175
 41
3.175
 42
3.175
 43
3.175
 44
209.91
 45
297.03
 46
0.0
 47
0.0
 48
0.0
 49
0.0
140
0.0
141
0.0
142
1.0
143
1.0
 70
0
 72
0
 73
1
 74
5
  7

 75
16
 76
0
 77
2
 78
300
147
1.0
148
0.0
149
0.0
100
AcDbLayout
  1
Layout1
 70
1
 71
1
 10
-3.175
 20
-3.175
 11
293.857
 21
206.735
 12
0.0
 22
0.0
 32
0.0
 14
29.068
 24
20.356
 34
0.0
 15
261.614
 25
183.204
 35
0.0
146
0.0
 13
0.0
 23
0.0
 33
0.0
 16
1.0
 26
0.0
 36
0.0
 17
0.0
 27
1.0
 37
0.0
 76
1
330
1B
  0
MATERIAL
  5
1F
102
{ACAD_REACTORS
330
E
102
}
330
E
100
AcDbMaterial
  1
ByBlock
  2

 70
0
 40
1.0
 71
1
 41
1.0
 91
-1023410177
 42
1.0
 72
1
  3

 73
1
 74
1
 75
1
 44
0.5
 73
0
 45
1.0
 46
1.0
 77
1
  4

 78
1
 79
1
170
1
 48
1.0
171
1
  6

172
1
173
1
174
1
140
1.0
141
1.0
175
1
  7

176
1
177
1
178
1
143
1.0
179
1
  8

270
1
271
1
272
1
145
1.0
146
1.0
273
1
  9

274
1
275
1
276
1
 42
1.0
 72
1
  3

 73
1
 74
1
 75
1
 94
63
  0
MATERIAL
  5
20
102
{ACAD_REACTORS
330
E
102
}
330
E
100
AcDbMaterial
  1
ByLayer
  2

 70
0
 40
1.0
 71
1
 41
1.0
 91
-1023410177
 42
1.0
 72
1
  3

 73
1
 74
1
 75
1
 44
0.5
 73
0
 45
1.0
 46
1.0
 77
1
  4

 78
1
 79
1
170
1
 48
1.0
171
1
  6

172
1
173
1
174
1
140
1.0
141
1.0
175
1
  7

176
1
177
1
178
1
143
1.0
179
1
  8

270
1
271
1
272
1
145
1.0
146
1.0
273
1
  9

274
1
275
1
276
1
 42
1.0
 72
1
  3

 73
1
 74
1
 75
1
 94
63
  0
MATERIAL
  5
21
102
{ACAD_REACTORS
330
E
102
}
330
E
100
AcDbMaterial
  1
Global
  2

 70
0
 40
1.0
 71
1
 41
1.0
 91
-1023410177
 42
1.0
 72
1
  3

 73
1
 74
1
 75
1
 44
0.5
 73
0
 45
1.0
 46
1.0
 77
1
  4

 78
1
 79
1
170
1
 48
1.0
171
1
  6

172
1
173
1
174
1
140
1.0
141
1.0
175
1
  7

176
1
177
1
178
1
143
1.0
179
1
  8

270
1
271
1
272
1
145
1.0
146
1.0
273
1
  9

274
1
275
1
276
1
 42
1.0
 72
1
  3

 73
1
 74
1
 75
1
 94
63
  0
MLINESTYLE
  5
22
102
{ACAD_REACTORS
330
10
102
}
330
10
100
AcDbMlineStyle
  2
Standard
 70
0
  3

 62
256
 51
90.0
 52
90.0
 71
2
 49
0.5
 62
256
  6
BYLAYER
 49
-0.5
 62
256
  6
BYLAYER
  0
MLEADERSTYLE
  5
2C
102
{ACAD_REACTORS
330
F
102
}
330
F
100
AcDbMLeaderStyle
179
2
170
2
171
1
172
0
 90
2
 40
0.0
 41
0.0
173
1
 91
-1056964608
 92
-2
290
1
 42
2.0
291
1
 43
8.0
  3
Standard
 44
4.0
300

342
29
174
1
175
1
176
0
178
1
 93
-1056964608
 45
4.0
292
0
297
0
 46
4.0
 94
-1056964608
 47
1.0
 49
0.0
140
1.0
294
1
141
0.0
177
0
142
1.0
295
0
296
0
143
3.75
271
0
272
9
272
9
  0
ENDSEC
  0
EOF
