0
SECTION
2
HEADER
0
ENDSEC
0
SECTION
2
ENTITIES
0
LINE
8
0
62
0
10
  0.677913
20
-1005.676022
30
  0.000000
11
  0.677913
21
 -0.678032
31
  0.000000
0
LINE
8
0
62
0
10
  0.677913
20
 -0.678032
30
  0.000000
11
 75.677763
21
 -0.678032
31
  0.000000
0
LINE
8
0
62
0
10
 75.677763
20
 -0.678032
30
  0.000000
11
 75.677763
21
-1005.676022
31
  0.000000
0
LINE
8
0
62
0
10
 75.677763
20
-1005.676022
30
  0.000000
11
  0.677913
21
-1005.676022
31
  0.000000
0
LINE
8
0
62
0
10
 76.855459
20
-1165.675583
30
  0.000000
11
 76.855459
21
 -0.677913
31
  0.000000
0
LINE
8
0
62
0
10
 76.855459
20
 -0.677913
30
  0.000000
11
831.853949
21
 -0.677913
31
  0.000000
0
LINE
8
0
62
0
10
831.853949
20
 -0.677913
30
  0.000000
11
831.853949
21
-1165.675583
31
  0.000000
0
LINE
8
0
62
0
10
831.853949
20
-1165.675583
30
  0.000000
11
 76.855459
21
-1165.675583
31
  0.000000
0
LINE
8
0
62
0
10
833.031624
20
-800.676432
30
  0.000000
11
833.031624
21
 -0.678032
31
  0.000000
0
LINE
8
0
62
0
10
833.031624
20
 -0.678032
30
  0.000000
11
1333.030624
21
 -0.678032
31
  0.000000
0
LINE
8
0
62
0
10
1333.030624
20
 -0.678032
30
  0.000000
11
1333.030624
21
-800.676432
31
  0.000000
0
LINE
8
0
62
0
10
1333.030624
20
-800.676432
30
  0.000000
11
833.031624
21
-800.676432
31
  0.000000
0
ARC
8
0
62
0
10
1372.320923
20
-37.493209
30
  0.000000
40
 22.031105
50
111.839379
51
140.321960
0
ARC
8
0
62
0
10
1448.557928
20
-227.720047
30
  0.000000
40
226.966048
50
 86.618528
51
111.839379
0
ARC
8
0
62
0
10
1460.455824
20
-26.355821
30
  0.000000
40
 25.250626
50
358.149310
51
 86.618528
0
ARC
8
0
62
0
10
802.760234
20
 -5.104441
30
  0.000000
40
683.289462
50
343.679748
51
358.149310
0
ARC
8
0
62
0
10
1761.729147
20
-282.465073
30
  0.000000
40
314.995966
50
164.278425
51
193.709477
0
ARC
8
0
62
0
10
1428.678495
20
-365.123685
30
  0.000000
40
 28.189408
50
318.449732
51
 16.497261
0
LINE
8
0
62
0
10
1449.774717
20
-383.821067
30
  0.000000
11
1427.308318
21
-410.445616
31
  0.000000
0
ARC
8
0
62
0
10
1416.631976
20
-396.394554
30
  0.000000
40
 17.647001
50
239.722469
51
307.228460
0
ARC
8
0
62
0
10
1462.269035
20
-318.225734
30
  0.000000
40
108.162776
50
209.590644
51
239.722469
0
ARC
8
0
62
0
10
1582.311604
20
-250.057988
30
  0.000000
40
246.210087
50
184.476839
51
209.590644
0
ARC
8
0
62
0
10
2201.398108
20
-201.586623
30
  0.000000
40
867.191224
50
168.804541
51
184.476839
0
ARC
8
0
62
0
10
1372.320923
20
-37.493209
30
  0.000000
40
 22.031105
50
140.321960
51
168.804541
0
ARC
8
0
62
0
10
1568.886262
20
-243.623462
30
  0.000000
40
 57.429415
50
254.865249
51
257.262082
0
ARC
8
0
62
0
10
1568.631471
20
-244.736678
30
  0.000000
40
 56.287418
50
257.265202
51
259.694489
0
ARC
8
0
62
0
10
1568.460482
20
-245.662155
30
  0.000000
40
 55.346282
50
259.697248
51
262.154149
0
ARC
8
0
62
0
10
1568.357111
20
-246.395866
30
  0.000000
40
 54.605328
50
262.156505
51
264.635741
0
ARC
8
0
62
0
10
1568.304701
20
-246.934697
30
  0.000000
40
 54.063958
50
264.637656
51
267.133582
0
ARC
8
0
62
0
10
1568.284207
20
-247.339006
30
  0.000000
40
 53.659130
50
267.133849
51
271.315191
0
ARC
8
0
62
0
10
1568.283955
20
-247.405223
30
  0.000000
40
 53.592936
50
271.317085
51
273.828070
0
ARC
8
0
62
0
10
1568.265277
20
-247.146534
30
  0.000000
40
 53.852295
50
273.829523
51
277.166706
0
ARC
8
0
62
0
10
1568.205503
20
-246.662386
30
  0.000000
40
 54.340117
50
277.165554
51
279.653860
0
ARC
8
0
62
0
10
1568.097194
20
-246.019257
30
  0.000000
40
 54.992302
50
279.652741
51
282.121494
0
ARC
8
0
62
0
10
1567.919801
20
-245.185837
30
  0.000000
40
 55.844390
50
282.119885
51
284.563613
0
ARC
8
0
62
0
10
1567.657100
20
-244.166502
30
  0.000000
40
 56.897030
50
284.561542
51
286.975177
0
ARC
8
0
62
0
10
1567.293442
20
-242.966499
30
  0.000000
40
 58.150923
50
286.972678
51
289.351623
0
ARC
8
0
62
0
10
1566.813865
20
-241.591923
30
  0.000000
40
 59.606754
50
289.348736
51
291.688906
0
ARC
8
0
62
0
10
1566.277903
20
-240.231491
30
  0.000000
40
 61.068947
50
291.684448
51
293.218795
0
ARC
8
0
62
0
10
1565.803397
20
-239.125607
30
  0.000000
40
 62.272333
50
293.218874
51
294.733389
0
ARC
8
0
62
0
10
1565.262051
20
-237.950624
30
  0.000000
40
 63.566025
50
294.733458
51
296.227354
0
ARC
8
0
62
0
10
1564.650339
20
-236.709106
30
  0.000000
40
 64.950062
50
296.227412
51
297.700009
0
ARC
8
0
62
0
10
1563.964946
20
-235.403748
30
  0.000000
40
 66.424417
50
297.700058
51
299.150782
0
ARC
8
0
62
0
10
1563.202787
20
-234.037367
30
  0.000000
40
 67.988988
50
299.150822
51
300.579203
0
ARC
8
0
62
0
10
1562.361011
20
-232.612894
30
  0.000000
40
 69.643592
50
300.579234
51
301.984900
0
ARC
8
0
62
0
10
1561.437011
20
-231.133368
30
  0.000000
40
 71.387946
50
301.984922
51
303.367596
0
ARC
8
0
62
0
10
1560.428434
20
-229.601929
30
  0.000000
40
 73.221667
50
303.367610
51
304.727101
0
ARC
8
0
62
0
10
1559.333189
20
-228.021807
30
  0.000000
40
 75.144256
50
304.727107
51
306.063309
0
ARC
8
0
62
0
10
1558.149454
20
-226.396313
30
  0.000000
40
 77.155091
50
306.063309
51
307.376192
0
ARC
8
0
62
0
10
1556.875680
20
-224.728834
30
  0.000000
40
 79.253421
50
307.376185
51
308.665791
0
ARC
8
0
62
0
10
1555.510601
20
-223.022821
30
  0.000000
40
 81.438351
50
308.665778
51
309.932213
0
ARC
8
0
62
0
10
1554.053235
20
-221.281781
30
  0.000000
40
 83.708843
50
309.932195
51
311.175625
0
ARC
8
0
62
0
10
1552.502893
20
-219.509266
30
  0.000000
40
 86.063705
50
311.175602
51
312.396245
0
ARC
8
0
62
0
10
1550.859175
20
-217.708866
30
  0.000000
40
 88.501582
50
312.396218
51
313.594340
0
ARC
8
0
62
0
10
1549.121979
20
-215.884199
30
  0.000000
40
 91.020959
50
313.594309
51
314.770219
0
ARC
8
0
62
0
10
1547.291501
20
-214.038902
30
  0.000000
40
 93.620146
50
314.770185
51
315.924228
0
ARC
8
0
62
0
10
1545.368234
20
-212.176617
30
  0.000000
40
 96.297282
50
315.924192
51
317.056745
0
ARC
8
0
62
0
10
1543.352970
20
-210.300988
30
  0.000000
40
 99.050331
50
317.056706
51
318.168175
0
ARC
8
0
62
0
10
1541.246797
20
-208.415648
30
  0.000000
40
101.877073
50
318.168134
51
319.258946
0
ARC
8
0
62
0
10
1539.051101
20
-206.524209
30
  0.000000
40
104.775111
50
319.258904
51
320.329508
0
ARC
8
0
62
0
10
1536.767560
20
-204.630254
30
  0.000000
40
107.741864
50
320.329464
51
321.380323
0
ARC
8
0
62
0
10
1534.398141
20
-202.737328
30
  0.000000
40
110.774571
50
321.380278
51
322.411869
0
ARC
8
0
62
0
10
1531.945101
20
-200.848927
30
  0.000000
40
113.870288
50
322.411823
51
323.424630
0
ARC
8
0
62
0
10
1529.410973
20
-198.968489
30
  0.000000
40
117.025894
50
323.424584
51
324.419102
0
ARC
8
0
62
0
10
1526.798570
20
-197.099388
30
  0.000000
40
120.238088
50
324.419055
51
325.395780
0
ARC
8
0
62
0
10
1524.110970
20
-195.244923
30
  0.000000
40
123.503396
50
325.395733
51
326.355166
0
ARC
8
0
62
0
10
1521.351516
20
-193.408307
30
  0.000000
40
126.818172
50
326.355119
51
327.297759
0
ARC
8
0
62
0
10
1518.523804
20
-191.592665
30
  0.000000
40
130.178606
50
327.297712
51
328.224059
0
ARC
8
0
62
0
10
1515.631673
20
-189.801022
30
  0.000000
40
133.580724
50
328.224013
51
329.134564
0
ARC
8
0
62
0
10
1512.679201
20
-188.036294
30
  0.000000
40
137.020397
50
329.134518
51
330.029765
0
ARC
8
0
62
0
10
1509.670691
20
-186.301284
30
  0.000000
40
140.493349
50
330.029720
51
330.910152
0
ARC
8
0
62
0
10
1506.098903
20
-184.316474
30
  0.000000
40
144.579562
50
330.910980
51
332.207502
0
ARC
8
0
62
0
10
1501.412031
20
-181.838143
30
  0.000000
40
149.881339
50
332.204794
51
333.470533
0
ARC
8
0
62
0
10
1496.638553
20
-179.447314
30
  0.000000
40
155.220076
50
333.467959
51
334.704482
0
ARC
8
0
62
0
10
1491.796172
20
-177.151220
30
  0.000000
40
160.579242
50
334.702039
51
335.910870
0
ARC
8
0
62
0
10
1486.903354
20
-174.956324
30
  0.000000
40
165.941815
50
335.908554
51
337.091175
0
ARC
8
0
62
0
10
1481.979228
20
-172.868283
30
  0.000000
40
171.290356
50
337.088983
51
338.246830
0
ARC
8
0
62
0
10
1477.043470
20
-170.891922
30
  0.000000
40
176.607092
50
338.244758
51
339.379224
0
ARC
8
0
62
0
10
1472.116189
20
-169.031206
30
  0.000000
40
181.873999
50
339.377269
51
340.489701
0
ARC
8
0
62
0
10
1467.217817
20
-167.289226
30
  0.000000
40
187.072895
50
340.487857
51
341.579558
0
ARC
8
0
62
0
10
1462.368980
20
-165.668179
30
  0.000000
40
192.185524
50
341.577823
51
342.650050
0
ARC
8
0
62
0
10
1457.590385
20
-164.169366
30
  0.000000
40
197.193655
50
342.648421
51
343.702391
0
ARC
8
0
62
0
10
1452.902695
20
-162.793188
30
  0.000000
40
202.079171
50
343.700863
51
344.737753
0
ARC
8
0
62
0
10
1448.326411
20
-161.539150
30
  0.000000
40
206.824166
50
344.736323
51
345.757268
0
ARC
8
0
62
0
10
1443.881744
20
-160.405868
30
  0.000000
40
211.411034
50
345.755933
51
346.762032
0
ARC
8
0
62
0
10
1439.588506
20
-159.391086
30
  0.000000
40
215.822571
50
346.760789
51
347.753107
0
ARC
8
0
62
0
10
1435.465984
20
-158.491697
30
  0.000000
40
220.042058
50
347.751953
51
348.731521
0
ARC
8
0
62
0
10
1431.532832
20
-157.703767
30
  0.000000
40
224.053354
50
348.730453
51
349.698270
0
ARC
8
0
62
0
10
1427.806959
20
-157.022565
30
  0.000000
40
227.840986
50
349.697285
51
350.654323
0
ARC
8
0
62
0
10
1424.305420
20
-156.442601
30
  0.000000
40
231.390228
50
350.653420
51
351.600623
0
ARC
8
0
62
0
10
1421.044320
20
-155.957664
30
  0.000000
40
234.687185
50
351.599798
51
352.538086
0
ARC
8
0
62
0
10
1418.038713
20
-155.560870
30
  0.000000
40
237.718869
50
352.537338
51
353.467609
0
ARC
8
0
62
0
10
1414.737367
20
-155.183840
30
  0.000000
40
241.041674
50
353.467845
51
354.696496
0
ARC
8
0
62
0
10
1411.616246
20
-154.893306
30
  0.000000
40
244.176289
50
354.696308
51
355.914421
0
ARC
8
0
62
0
10
1409.026977
20
-154.707567
30
  0.000000
40
246.772211
50
355.914237
51
357.123791
0
ARC
8
0
62
0
10
1406.990924
20
-154.604488
30
  0.000000
40
248.810872
50
357.123611
51
358.326549
0
ARC
8
0
62
0
10
1404.649717
20
-154.548077
30
  0.000000
40
251.152728
50
358.329283
51
  2.512584
0
ARC
8
0
62
0
10
1405.091582
20
-154.522915
30
  0.000000
40
250.710185
50
  2.511266
51
  4.007243
0
ARC
8
0
62
0
10
1406.566536
20
-154.420252
30
  0.000000
40
249.231662
50
  4.007395
51
  5.208979
0
ARC
8
0
62
0
10
1408.455535
20
-154.247262
30
  0.000000
40
247.334759
50
  5.208799
51
  6.416519
0
ARC
8
0
62
0
10
1410.898245
20
-153.971769
30
  0.000000
40
244.876563
50
  6.416336
51
  7.632125
0
ARC
8
0
62
0
10
1413.873438
20
-153.572300
30
  0.000000
40
241.874672
50
  7.631938
51
  8.857766
0
ARC
8
0
62
0
10
1416.736136
20
-153.129647
30
  0.000000
40
238.977955
50
  8.858589
51
  9.785181
0
ARC
8
0
62
0
10
1419.604058
20
-152.637343
30
  0.000000
40
236.068087
50
  9.785733
51
 10.719902
0
ARC
8
0
62
0
10
1422.729628
20
-152.048219
30
  0.000000
40
232.887482
50
 10.720526
51
 11.663158
0
ARC
8
0
62
0
10
1426.097971
20
-151.355781
30
  0.000000
40
229.448703
50
 11.663856
51
 12.615861
0
ARC
8
0
62
0
10
1429.693156
20
-150.554239
30
  0.000000
40
225.765251
50
 12.616634
51
 13.578942
0
ARC
8
0
62
0
10
1433.498288
20
-149.638550
30
  0.000000
40
221.851493
50
 13.579793
51
 14.553362
0
ARC
8
0
62
0
10
1437.495609
20
-148.604452
30
  0.000000
40
217.722581
50
 14.554292
51
 15.540108
0
ARC
8
0
62
0
10
1441.666606
20
-147.448500
30
  0.000000
40
213.394368
50
 15.541120
51
 16.540198
0
ARC
8
0
62
0
10
1445.992119
20
-146.168092
30
  0.000000
40
208.883327
50
 16.541294
51
 17.554681
0
ARC
8
0
62
0
10
1450.452455
20
-144.761495
30
  0.000000
40
204.206458
50
 17.555864
51
 18.584642
0
ARC
8
0
62
0
10
1455.027506
20
-143.227860
30
  0.000000
40
199.381201
50
 18.585915
51
 19.631200
0
ARC
8
0
62
0
10
1459.696864
20
-141.567231
30
  0.000000
40
194.425339
50
 19.632566
51
 20.695515
0
ARC
8
0
62
0
10
1464.439946
20
-139.780558
30
  0.000000
40
189.356906
50
 20.696977
51
 21.778786
0
ARC
8
0
62
0
10
1469.236114
20
-137.869692
30
  0.000000
40
184.194096
50
 21.780347
51
 22.882253
0
ARC
8
0
62
0
10
1474.064793
20
-135.837381
30
  0.000000
40
178.955165
50
 22.883917
51
 24.007200
0
ARC
8
0
62
0
10
1478.905598
20
-133.687260
30
  0.000000
40
173.658338
50
 24.008970
51
 25.154956
0
ARC
8
0
62
0
10
1483.738446
20
-131.423836
30
  0.000000
40
168.321721
50
 25.156836
51
 26.326894
0
ARC
8
0
62
0
10
1488.543680
20
-129.052463
30
  0.000000
40
162.963209
50
 26.328888
51
 27.524431
0
ARC
8
0
62
0
10
1493.302178
20
-126.579316
30
  0.000000
40
157.600400
50
 27.526543
51
 28.749032
0
ARC
8
0
62
0
10
1497.995466
20
-124.011361
30
  0.000000
40
152.250511
50
 28.751265
51
 30.002203
0
ARC
8
0
62
0
10
1502.605825
20
-121.356316
30
  0.000000
40
146.930301
50
 30.004561
51
 31.285494
0
ARC
8
0
62
0
10
1506.617687
20
-118.928304
30
  0.000000
40
142.240929
50
 31.288884
51
 32.162090
0
ARC
8
0
62
0
10
1509.570331
20
-117.071523
30
  0.000000
40
138.752987
50
 32.162045
51
 33.049824
0
ARC
8
0
62
0
10
1512.467798
20
-115.186173
30
  0.000000
40
135.296130
50
 33.049778
51
 33.952616
0
ARC
8
0
62
0
10
1515.305807
20
-113.275197
30
  0.000000
40
131.874709
50
 33.952570
51
 34.870957
0
ARC
8
0
62
0
10
1518.080302
20
-111.341645
30
  0.000000
40
128.492927
50
 34.870910
51
 35.805342
0
ARC
8
0
62
0
10
1520.787466
20
-109.388667
30
  0.000000
40
125.154835
50
 35.805295
51
 36.756268
0
ARC
8
0
62
0
10
1523.423723
20
-107.419507
30
  0.000000
40
121.864327
50
 36.756222
51
 37.724238
0
ARC
8
0
62
0
10
1525.985753
20
-105.437490
30
  0.000000
40
118.625131
50
 37.724191
51
 38.709750
0
ARC
8
0
62
0
10
1528.470498
20
-103.446019
30
  0.000000
40
115.440807
50
 38.709703
51
 39.713304
0
ARC
8
0
62
0
10
1530.875168
20
-101.448562
30
  0.000000
40
112.314744
50
 39.713258
51
 40.735396
0
ARC
8
0
62
0
10
1533.197249
20
-99.448646
30
  0.000000
40
109.250153
50
 40.735350
51
 41.776515
0
ARC
8
0
62
0
10
1535.434506
20
-97.449846
30
  0.000000
40
106.250066
50
 41.776471
51
 42.837144
0
ARC
8
0
62
0
10
1537.584991
20
-95.455777
30
  0.000000
40
103.317337
50
 42.837100
51
 43.917751
0
ARC
8
0
62
0
10
1539.647047
20
-93.470082
30
  0.000000
40
100.454636
50
 43.917709
51
 45.018795
0
ARC
8
0
62
0
10
1541.619309
20
-91.496429
30
  0.000000
40
 97.664452
50
 45.018755
51
 46.140714
0
ARC
8
0
62
0
10
1543.500708
20
-89.538494
30
  0.000000
40
 94.949094
50
 46.140676
51
 47.283926
0
ARC
8
0
62
0
10
1545.290470
20
-87.599954
30
  0.000000
40
 92.310688
50
 47.283890
51
 48.448821
0
ARC
8
0
62
0
10
1546.988122
20
-85.684481
30
  0.000000
40
 89.751185
50
 48.448789
51
 49.635764
0
ARC
8
0
62
0
10
1548.593487
20
-83.795729
30
  0.000000
40
 87.272357
50
 49.635735
51
 50.845082
0
ARC
8
0
62
0
10
1550.106686
20
-81.937322
30
  0.000000
40
 84.875809
50
 50.845057
51
 52.077062
0
ARC
8
0
62
0
10
1551.528134
20
-80.112851
30
  0.000000
40
 82.562973
50
 52.077042
51
 53.331950
0
ARC
8
0
62
0
10
1552.858539
20
-78.325859
30
  0.000000
40
 80.335122
50
 53.331935
51
 54.609938
0
ARC
8
0
62
0
10
1554.098901
20
-76.579835
30
  0.000000
40
 78.193372
50
 54.609928
51
 55.911163
0
ARC
8
0
62
0
10
1555.250502
20
-74.878205
30
  0.000000
40
 76.138687
50
 55.911159
51
 57.235701
0
ARC
8
0
62
0
10
1556.314905
20
-73.224319
30
  0.000000
40
 74.171889
50
 57.235704
51
 58.583559
0
ARC
8
0
62
0
10
1557.293949
20
-71.621446
30
  0.000000
40
 72.293664
50
 58.583569
51
 59.954670
0
ARC
8
0
62
0
10
1558.189740
20
-70.072765
30
  0.000000
40
 70.504571
50
 59.954688
51
 61.348887
0
ARC
8
0
62
0
10
1559.004644
20
-68.581357
30
  0.000000
40
 68.805051
50
 61.348913
51
 62.765978
0
ARC
8
0
62
0
10
1559.741283
20
-67.150194
30
  0.000000
40
 67.195435
50
 62.766012
51
 64.205618
0
ARC
8
0
62
0
10
1560.402520
20
-65.782134
30
  0.000000
40
 65.675954
50
 64.205662
51
 65.667388
0
ARC
8
0
62
0
10
1560.991454
20
-64.479913
30
  0.000000
40
 64.246751
50
 65.667441
51
 67.150766
0
ARC
8
0
62
0
10
1561.511409
20
-63.246137
30
  0.000000
40
 62.907887
50
 67.150830
51
 68.655127
0
ARC
8
0
62
0
10
1561.965924
20
-62.083277
30
  0.000000
40
 61.659356
50
 68.655201
51
 70.179737
0
ARC
8
0
62
0
10
1562.358741
20
-60.993658
30
  0.000000
40
 60.501093
50
 70.179822
51
 71.723755
0
ARC
8
0
62
0
10
1562.745156
20
-59.820291
30
  0.000000
40
 59.265737
50
 71.722745
51
 74.069639
0
ARC
8
0
62
0
10
1563.135832
20
-58.464556
30
  0.000000
40
 57.854839
50
 74.073169
51
 76.458194
0
ARC
8
0
62
0
10
1563.422055
20
-57.289810
30
  0.000000
40
 56.645731
50
 76.461425
51
 78.880408
0
ARC
8
0
62
0
10
1563.619206
20
-56.301262
30
  0.000000
40
 55.637719
50
 78.883292
51
 81.331555
0
ARC
8
0
62
0
10
1563.743286
20
-55.503237
30
  0.000000
40
 54.830109
50
 81.334050
51
 83.806451
0
ARC
8
0
62
0
10
1563.810808
20
-54.899157
30
  0.000000
40
 54.222271
50
 83.808517
51
 86.299526
0
ARC
8
0
62
0
10
1563.845582
20
-54.314950
30
  0.000000
40
 53.637037
50
 86.296318
51
 93.826177
0
ARC
8
0
62
0
10
1563.863084
20
-54.529517
30
  0.000000
40
 53.852295
50
 93.829523
51
 97.166706
0
ARC
8
0
62
0
10
1563.922858
20
-55.013665
30
  0.000000
40
 54.340117
50
 97.165554
51
 99.653860
0
ARC
8
0
62
0
10
1564.031168
20
-55.656794
30
  0.000000
40
 54.992302
50
 99.652741
51
102.121494
0
ARC
8
0
62
0
10
1564.208560
20
-56.490214
30
  0.000000
40
 55.844390
50
102.119885
51
104.563613
0
ARC
8
0
62
0
10
1564.471261
20
-57.509549
30
  0.000000
40
 56.897030
50
104.561542
51
106.975177
0
ARC
8
0
62
0
10
1564.834919
20
-58.709551
30
  0.000000
40
 58.150923
50
106.972678
51
109.351623
0
ARC
8
0
62
0
10
1565.314496
20
-60.084128
30
  0.000000
40
 59.606754
50
109.348736
51
111.688906
0
ARC
8
0
62
0
10
1565.850458
20
-61.444560
30
  0.000000
40
 61.068947
50
111.684448
51
113.218795
0
ARC
8
0
62
0
10
1566.324964
20
-62.550444
30
  0.000000
40
 62.272333
50
113.218874
51
114.733389
0
ARC
8
0
62
0
10
1566.866310
20
-63.725427
30
  0.000000
40
 63.566025
50
114.733458
51
116.227354
0
ARC
8
0
62
0
10
1567.478023
20
-64.966945
30
  0.000000
40
 64.950062
50
116.227412
51
117.700009
0
ARC
8
0
62
0
10
1568.163415
20
-66.272303
30
  0.000000
40
 66.424417
50
117.700058
51
119.150782
0
ARC
8
0
62
0
10
1568.925574
20
-67.638684
30
  0.000000
40
 67.988988
50
119.150822
51
120.579203
0
ARC
8
0
62
0
10
1569.767350
20
-69.063157
30
  0.000000
40
 69.643592
50
120.579234
51
121.984900
0
ARC
8
0
62
0
10
1570.691350
20
-70.542683
30
  0.000000
40
 71.387946
50
121.984922
51
123.367596
0
ARC
8
0
62
0
10
1571.699927
20
-72.074122
30
  0.000000
40
 73.221667
50
123.367610
51
124.727101
0
ARC
8
0
62
0
10
1572.795172
20
-73.654244
30
  0.000000
40
 75.144256
50
124.727107
51
126.063309
0
ARC
8
0
62
0
10
1573.978907
20
-75.279738
30
  0.000000
40
 77.155091
50
126.063309
51
127.376192
0
ARC
8
0
62
0
10
1575.252681
20
-76.947217
30
  0.000000
40
 79.253421
50
127.376185
51
128.665791
0
ARC
8
0
62
0
10
1576.617760
20
-78.653230
30
  0.000000
40
 81.438351
50
128.665778
51
129.932213
0
ARC
8
0
62
0
10
1578.075126
20
-80.394270
30
  0.000000
40
 83.708843
50
129.932195
51
131.175625
0
ARC
8
0
62
0
10
1579.625468
20
-82.166785
30
  0.000000
40
 86.063705
50
131.175602
51
132.396245
0
ARC
8
0
62
0
10
1581.269186
20
-83.967185
30
  0.000000
40
 88.501582
50
132.396218
51
133.594340
0
ARC
8
0
62
0
10
1583.006382
20
-85.791852
30
  0.000000
40
 91.020959
50
133.594309
51
134.770219
0
ARC
8
0
62
0
10
1584.836860
20
-87.637149
30
  0.000000
40
 93.620146
50
134.770185
51
135.924228
0
ARC
8
0
62
0
10
1586.760127
20
-89.499434
30
  0.000000
40
 96.297282
50
135.924192
51
137.056745
0
ARC
8
0
62
0
10
1588.775391
20
-91.375063
30
  0.000000
40
 99.050331
50
137.056706
51
138.168175
0
ARC
8
0
62
0
10
1590.881564
20
-93.260403
30
  0.000000
40
101.877073
50
138.168134
51
139.258946
0
ARC
8
0
62
0
10
1593.077260
20
-95.151842
30
  0.000000
40
104.775111
50
139.258904
51
140.329508
0
ARC
8
0
62
0
10
1595.360802
20
-97.045797
30
  0.000000
40
107.741864
50
140.329464
51
141.380323
0
ARC
8
0
62
0
10
1597.730220
20
-98.938723
30
  0.000000
40
110.774571
50
141.380278
51
142.411869
0
ARC
8
0
62
0
10
1600.183260
20
-100.827124
30
  0.000000
40
113.870288
50
142.411823
51
143.424630
0
ARC
8
0
62
0
10
1602.717388
20
-102.707562
30
  0.000000
40
117.025894
50
143.424584
51
144.419102
0
ARC
8
0
62
0
10
1605.329791
20
-104.576663
30
  0.000000
40
120.238088
50
144.419055
51
145.395780
0
ARC
8
0
62
0
10
1608.017391
20
-106.431128
30
  0.000000
40
123.503396
50
145.395733
51
146.355166
0
ARC
8
0
62
0
10
1610.776845
20
-108.267744
30
  0.000000
40
126.818172
50
146.355119
51
147.297759
0
ARC
8
0
62
0
10
1613.604557
20
-110.083386
30
  0.000000
40
130.178606
50
147.297712
51
148.224059
0
ARC
8
0
62
0
10
1616.496688
20
-111.875029
30
  0.000000
40
133.580724
50
148.224013
51
149.134564
0
ARC
8
0
62
0
10
1619.449160
20
-113.639757
30
  0.000000
40
137.020397
50
149.134518
51
150.029765
0
ARC
8
0
62
0
10
1622.457671
20
-115.374767
30
  0.000000
40
140.493349
50
150.029720
51
150.910152
0
ARC
8
0
62
0
10
1625.517702
20
-117.077378
30
  0.000000
40
143.995160
50
150.910107
51
151.776207
0
ARC
8
0
62
0
10
1629.143566
20
-119.021142
30
  0.000000
40
148.109173
50
151.777006
51
153.052831
0
ARC
8
0
62
0
10
1633.890102
20
-121.441979
30
  0.000000
40
153.437400
50
153.050212
51
154.296303
0
ARC
8
0
62
0
10
1638.711532
20
-123.770408
30
  0.000000
40
158.791625
50
154.293816
51
155.511711
0
ARC
8
0
62
0
10
1643.589632
20
-125.999706
30
  0.000000
40
164.154981
50
155.509353
51
156.700549
0
ARC
8
0
62
0
10
1648.505483
20
-128.123943
30
  0.000000
40
169.510159
50
156.698316
51
157.864264
0
ARC
8
0
62
0
10
1653.439580
20
-130.138014
30
  0.000000
40
174.839489
50
157.862152
51
159.004260
0
ARC
8
0
62
0
10
1658.371943
20
-132.037665
30
  0.000000
40
180.125020
50
159.002266
51
160.121896
0
ARC
8
0
62
0
10
1663.282236
20
-133.819512
30
  0.000000
40
185.348613
50
160.120016
51
161.218485
0
ARC
8
0
62
0
10
1668.149884
20
-135.481059
30
  0.000000
40
190.492026
50
161.216714
51
162.295295
0
ARC
8
0
62
0
10
1672.954194
20
-137.020705
30
  0.000000
40
195.537011
50
162.293631
51
163.353554
0
ARC
8
0
62
0
10
1677.674473
20
-138.437750
30
  0.000000
40
200.465401
50
163.351993
51
164.394448
0
ARC
8
0
62
0
10
1682.290156
20
-139.732392
30
  0.000000
40
205.259208
50
164.392986
51
165.419121
0
ARC
8
0
62
0
10
1686.780918
20
-140.905718
30
  0.000000
40
209.900719
50
165.417756
51
166.428683
0
ARC
8
0
62
0
10
1691.126804
20
-141.959697
30
  0.000000
40
214.372583
50
166.427410
51
167.424206
0
ARC
8
0
62
0
10
1695.308338
20
-142.897153
30
  0.000000
40
218.657910
50
167.423022
51
168.406727
0
ARC
8
0
62
0
10
1699.306641
20
-143.721749
30
  0.000000
40
222.740357
50
168.405631
51
169.377256
0
ARC
8
0
62
0
10
1703.103547
20
-144.437954
30
  0.000000
40
226.604219
50
169.376244
51
170.336769
0
ARC
8
0
62
0
10
1706.681702
20
-145.051009
30
  0.000000
40
230.234511
50
170.335838
51
171.286216
0
ARC
8
0
62
0
10
1710.024675
20
-145.566888
30
  0.000000
40
233.617052
50
171.285365
51
172.226524
0
ARC
8
0
62
0
10
1713.117051
20
-145.992259
30
  0.000000
40
236.738545
50
172.225751
51
173.158596
0
ARC
8
0
62
0
10
1715.944522
20
-146.334427
30
  0.000000
40
239.586643
50
173.157898
51
174.083312
0
ARC
8
0
62
0
10
1719.016526
20
-146.651912
30
  0.000000
40
242.675009
50
174.083519
51
175.306650
0
ARC
8
0
62
0
10
1721.874673
20
-146.887359
30
  0.000000
40
245.542837
50
175.306465
51
176.520053
0
ARC
8
0
62
0
10
1724.189719
20
-147.028928
30
  0.000000
40
247.862208
50
176.519871
51
177.725877
0
ARC
8
0
62
0
10
1725.942597
20
-147.099319
30
  0.000000
40
249.616499
50
177.725698
51
178.926046
0
ARC
8
0
62
0
10
1727.570920
20
-147.125227
30
  0.000000
40
251.245022
50
178.927099
51
182.213495
0
ARC
8
0
62
0
10
1727.251506
20
-147.141744
30
  0.000000
40
250.925208
50
182.212543
51
183.707678
0
ARC
8
0
62
0
10
1725.945508
20
-147.225933
30
  0.000000
40
249.616499
50
183.707779
51
184.908127
0
ARC
8
0
62
0
10
1724.197716
20
-147.376799
30
  0.000000
40
247.862208
50
184.907948
51
186.113954
0
ARC
8
0
62
0
10
1721.891621
20
-147.624602
30
  0.000000
40
245.542837
50
186.113772
51
187.327360
0
ARC
8
0
62
0
10
1719.047313
20
-147.991139
30
  0.000000
40
242.675009
50
187.327175
51
188.550306
0
ARC
8
0
62
0
10
1716.288537
20
-148.402601
30
  0.000000
40
239.885720
50
188.551089
51
189.475350
0
ARC
8
0
62
0
10
1713.509607
20
-148.864189
30
  0.000000
40
237.068717
50
189.475879
51
190.407424
0
ARC
8
0
62
0
10
1710.468322
20
-149.420285
30
  0.000000
40
233.977010
50
190.408024
51
191.347736
0
ARC
8
0
62
0
10
1707.179183
20
-150.077606
30
  0.000000
40
230.622833
50
191.348409
51
192.297187
0
ARC
8
0
62
0
10
1703.657780
20
-150.842182
30
  0.000000
40
227.019384
50
192.297935
51
193.256703
0
ARC
8
0
62
0
10
1699.920699
20
-151.719308
30
  0.000000
40
223.180749
50
193.257528
51
194.227235
0
ARC
8
0
62
0
10
1695.985419
20
-152.713513
30
  0.000000
40
219.121826
50
194.228139
51
195.209761
0
ARC
8
0
62
0
10
1691.870215
20
-153.828516
30
  0.000000
40
214.858245
50
195.210746
51
196.205288
0
ARC
8
0
62
0
10
1687.594043
20
-155.067203
30
  0.000000
40
210.406282
50
196.206356
51
197.214855
0
ARC
8
0
62
0
10
1683.176431
20
-156.431598
30
  0.000000
40
205.782771
50
197.216009
51
198.239533
0
ARC
8
0
62
0
10
1678.637363
20
-157.922848
30
  0.000000
40
201.005016
50
198.240776
51
199.280432
0
ARC
8
0
62
0
10
1673.997160
20
-159.541207
30
  0.000000
40
196.090695
50
199.281767
51
200.338697
0
ARC
8
0
62
0
10
1669.276360
20
-161.286026
30
  0.000000
40
191.057771
50
200.340127
51
201.415514
0
ARC
8
0
62
0
10
1664.495595
20
-163.155756
30
  0.000000
40
185.924393
50
201.417041
51
202.512108
0
ARC
8
0
62
0
10
1659.675476
20
-165.147945
30
  0.000000
40
180.708806
50
202.513737
51
203.629750
0
ARC
8
0
62
0
10
1654.836465
20
-167.259254
30
  0.000000
40
175.429258
50
203.631484
51
204.769753
0
ARC
8
0
62
0
10
1649.998757
20
-169.485464
30
  0.000000
40
170.103904
50
204.771596
51
205.933474
0
ARC
8
0
62
0
10
1645.182165
20
-171.821501
30
  0.000000
40
164.750719
50
205.935430
51
207.122318
0
ARC
8
0
62
0
10
1640.406002
20
-174.261459
30
  0.000000
40
159.387409
50
207.124390
51
208.337733
0
ARC
8
0
62
0
10
1635.688969
20
-176.798632
30
  0.000000
40
154.031327
50
208.339925
51
209.581210
0
ARC
8
0
62
0
10
1631.049049
20
-179.425549
30
  0.000000
40
148.699393
50
209.583526
51
210.854286
0
ARC
8
0
62
0
10
1627.006290
20
-181.830958
30
  0.000000
40
143.995160
50
210.857618
51
211.723718
0
ARC
8
0
62
0
10
1624.027731
20
-183.672387
30
  0.000000
40
140.493349
50
211.723673
51
212.604105
0
ARC
8
0
62
0
10
1621.102127
20
-185.543813
30
  0.000000
40
137.020397
50
212.604060
51
213.499307
0
ARC
8
0
62
0
10
1618.233868
20
-187.442351
30
  0.000000
40
133.580724
50
213.499261
51
214.409812
0
ARC
8
0
62
0
10
1615.427123
20
-189.365003
30
  0.000000
40
130.178606
50
214.409766
51
215.336113
0
ARC
8
0
62
0
10
1612.685832
20
-191.308668
30
  0.000000
40
126.818172
50
215.336066
51
216.278706
0
ARC
8
0
62
0
10
1610.013690
20
-193.270147
30
  0.000000
40
123.503396
50
216.278659
51
217.238091
0
ARC
8
0
62
0
10
1607.414148
20
-195.246157
30
  0.000000
40
120.238088
50
217.238045
51
218.214770
0
ARC
8
0
62
0
10
1604.890394
20
-197.233330
30
  0.000000
40
117.025894
50
218.214723
51
219.209241
0
ARC
8
0
62
0
10
1602.445355
20
-199.228231
30
  0.000000
40
113.870288
50
219.209194
51
220.222002
0
ARC
8
0
62
0
10
1600.081683
20
-201.227362
30
  0.000000
40
110.774571
50
220.221956
51
221.253547
0
ARC
8
0
62
0
10
1597.801753
20
-203.227169
30
  0.000000
40
107.741864
50
221.253502
51
222.304361
0
ARC
8
0
62
0
10
1595.607656
20
-205.224058
30
  0.000000
40
104.775111
50
222.304317
51
223.374921
0
ARC
8
0
62
0
10
1593.501196
20
-207.214397
30
  0.000000
40
101.877073
50
223.374878
51
224.465691
0
ARC
8
0
62
0
10
1591.483885
20
-209.194530
30
  0.000000
40
 99.050331
50
224.465650
51
225.577119
0
ARC
8
0
62
0
10
1589.556939
20
-211.160784
30
  0.000000
40
 96.297282
50
225.577080
51
226.709633
0
ARC
8
0
62
0
10
1587.721281
20
-213.109481
30
  0.000000
40
 93.620146
50
226.709596
51
227.863639
0
ARC
8
0
62
0
10
1585.977533
20
-215.036945
30
  0.000000
40
 91.020959
50
227.863606
51
229.039516
0
ARC
8
0
62
0
10
1584.326021
20
-216.939513
30
  0.000000
40
 88.501582
50
229.039485
51
230.237607
0
ARC
8
0
62
0
10
1582.766773
20
-218.813544
30
  0.000000
40
 86.063705
50
230.237580
51
231.458223
0
ARC
8
0
62
0
10
1581.299520
20
-220.655429
30
  0.000000
40
 83.708843
50
231.458200
51
232.701630
0
ARC
8
0
62
0
10
1579.923700
20
-222.461601
30
  0.000000
40
 81.438351
50
232.701612
51
233.968047
0
ARC
8
0
62
0
10
1578.638459
20
-224.228540
30
  0.000000
40
 79.253421
50
233.968034
51
235.257640
0
ARC
8
0
62
0
10
1577.442656
20
-225.952791
30
  0.000000
40
 77.155091
50
235.257633
51
236.570516
0
ARC
8
0
62
0
10
1576.334866
20
-227.630964
30
  0.000000
40
 75.144256
50
236.570515
51
237.906718
0
ARC
8
0
62
0
10
1575.313390
20
-229.259746
30
  0.000000
40
 73.221667
50
237.906724
51
239.266215
0
ARC
8
0
62
0
10
1574.376252
20
-230.835914
30
  0.000000
40
 71.387946
50
239.266229
51
240.648903
0
ARC
8
0
62
0
10
1573.521216
20
-232.356337
30
  0.000000
40
 69.643592
50
240.648925
51
242.054591
0
ARC
8
0
62
0
10
1572.745788
20
-233.817988
30
  0.000000
40
 67.988988
50
242.054622
51
243.483003
0
ARC
8
0
62
0
10
1572.047223
20
-235.217949
30
  0.000000
40
 66.424417
50
243.483042
51
244.933767
0
ARC
8
0
62
0
10
1571.422539
20
-236.553423
30
  0.000000
40
 64.950062
50
244.933816
51
246.406412
0
ARC
8
0
62
0
10
1570.868524
20
-237.821739
30
  0.000000
40
 63.566025
50
246.406471
51
247.900367
0
ARC
8
0
62
0
10
1570.381744
20
-239.020357
30
  0.000000
40
 62.272333
50
247.900436
51
249.414951
0
ARC
8
0
62
0
10
1569.958558
20
-240.146879
30
  0.000000
40
 61.068947
50
249.415030
51
250.949377
0
ARC
8
0
62
0
10
1569.595127
20
-241.199049
30
  0.000000
40
 59.955778
50
250.949467
51
252.502748
0
ARC
8
0
62
0
10
1569.240454
20
-242.327425
30
  0.000000
40
 58.772975
50
252.501778
51
254.861813
0
ARC
8
0
62
0
10
1412.865670
20
-784.424098
30
  0.000000
40
 57.429415
50
102.737918
51
105.134751
0
ARC
8
0
62
0
10
1412.610879
20
-783.310883
30
  0.000000
40
 56.287418
50
100.305511
51
102.734798
0
ARC
8
0
62
0
10
1412.439890
20
-782.385406
30
  0.000000
40
 55.346282
50
 97.845851
51
100.302752
0
ARC
8
0
62
0
10
1412.336519
20
-781.651695
30
  0.000000
40
 54.605328
50
 95.364259
51
 97.843495
0
ARC
8
0
62
0
10
1412.284109
20
-781.112864
30
  0.000000
40
 54.063958
50
 92.866418
51
 95.362344
0
ARC
8
0
62
0
10
1412.263615
20
-780.708555
30
  0.000000
40
 53.659130
50
 88.684809
51
 92.866151
0
ARC
8
0
62
0
10
1412.263363
20
-780.642338
30
  0.000000
40
 53.592936
50
 86.171930
51
 88.682915
0
ARC
8
0
62
0
10
1412.244685
20
-780.901027
30
  0.000000
40
 53.852295
50
 82.833294
51
 86.170477
0
ARC
8
0
62
0
10
1412.184911
20
-781.385174
30
  0.000000
40
 54.340117
50
 80.346140
51
 82.834446
0
ARC
8
0
62
0
10
1412.076602
20
-782.028304
30
  0.000000
40
 54.992302
50
 77.878506
51
 80.347259
0
ARC
8
0
62
0
10
1411.899209
20
-782.861723
30
  0.000000
40
 55.844390
50
 75.436387
51
 77.880115
0
ARC
8
0
62
0
10
1411.636508
20
-783.881059
30
  0.000000
40
 56.897030
50
 73.024823
51
 75.438458
0
ARC
8
0
62
0
10
1411.272850
20
-785.081061
30
  0.000000
40
 58.150923
50
 70.648377
51
 73.027322
0
ARC
8
0
62
0
10
1410.793273
20
-786.455637
30
  0.000000
40
 59.606754
50
 68.311094
51
 70.651264
0
ARC
8
0
62
0
10
1410.257311
20
-787.816069
30
  0.000000
40
 61.068947
50
 66.781205
51
 68.315552
0
ARC
8
0
62
0
10
1409.782805
20
-788.921954
30
  0.000000
40
 62.272333
50
 65.266611
51
 66.781126
0
ARC
8
0
62
0
10
1409.241459
20
-790.096937
30
  0.000000
40
 63.566025
50
 63.772646
51
 65.266542
0
ARC
8
0
62
0
10
1408.629747
20
-791.338454
30
  0.000000
40
 64.950062
50
 62.299991
51
 63.772588
0
ARC
8
0
62
0
10
1407.944354
20
-792.643812
30
  0.000000
40
 66.424417
50
 60.849218
51
 62.299942
0
ARC
8
0
62
0
10
1407.182195
20
-794.010194
30
  0.000000
40
 67.988988
50
 59.420797
51
 60.849178
0
ARC
8
0
62
0
10
1406.340419
20
-795.434667
30
  0.000000
40
 69.643592
50
 58.015100
51
 59.420766
0
ARC
8
0
62
0
10
1405.416419
20
-796.914192
30
  0.000000
40
 71.387946
50
 56.632404
51
 58.015078
0
ARC
8
0
62
0
10
1404.407842
20
-798.445631
30
  0.000000
40
 73.221667
50
 55.272899
51
 56.632390
0
ARC
8
0
62
0
10
1403.312597
20
-800.025754
30
  0.000000
40
 75.144256
50
 53.936691
51
 55.272893
0
ARC
8
0
62
0
10
1402.128862
20
-801.651247
30
  0.000000
40
 77.155091
50
 52.623808
51
 53.936691
0
ARC
8
0
62
0
10
1400.855088
20
-803.318726
30
  0.000000
40
 79.253421
50
 51.334209
51
 52.623815
0
ARC
8
0
62
0
10
1399.490009
20
-805.024739
30
  0.000000
40
 81.438351
50
 50.067787
51
 51.334222
0
ARC
8
0
62
0
10
1398.032643
20
-806.765780
30
  0.000000
40
 83.708843
50
 48.824375
51
 50.067805
0
ARC
8
0
62
0
10
1396.482301
20
-808.538295
30
  0.000000
40
 86.063705
50
 47.603755
51
 48.824398
0
ARC
8
0
62
0
10
1394.838583
20
-810.338694
30
  0.000000
40
 88.501582
50
 46.405660
51
 47.603782
0
ARC
8
0
62
0
10
1393.101387
20
-812.163361
30
  0.000000
40
 91.020959
50
 45.229781
51
 46.405691
0
ARC
8
0
62
0
10
1391.270909
20
-814.008659
30
  0.000000
40
 93.620146
50
 44.075772
51
 45.229815
0
ARC
8
0
62
0
10
1389.347642
20
-815.870944
30
  0.000000
40
 96.297282
50
 42.943255
51
 44.075808
0
ARC
8
0
62
0
10
1387.332378
20
-817.746573
30
  0.000000
40
 99.050331
50
 41.831825
51
 42.943294
0
ARC
8
0
62
0
10
1385.226205
20
-819.631913
30
  0.000000
40
101.877073
50
 40.741054
51
 41.831866
0
ARC
8
0
62
0
10
1383.030509
20
-821.523352
30
  0.000000
40
104.775111
50
 39.670492
51
 40.741096
0
ARC
8
0
62
0
10
1380.746968
20
-823.417306
30
  0.000000
40
107.741864
50
 38.619677
51
 39.670536
0
ARC
8
0
62
0
10
1378.377549
20
-825.310232
30
  0.000000
40
110.774571
50
 37.588131
51
 38.619722
0
ARC
8
0
62
0
10
1375.924509
20
-827.198634
30
  0.000000
40
113.870288
50
 36.575370
51
 37.588177
0
ARC
8
0
62
0
10
1373.390381
20
-829.079071
30
  0.000000
40
117.025894
50
 35.580898
51
 36.575416
0
ARC
8
0
62
0
10
1370.777978
20
-830.948172
30
  0.000000
40
120.238088
50
 34.604220
51
 35.580945
0
ARC
8
0
62
0
10
1368.090378
20
-832.802638
30
  0.000000
40
123.503396
50
 33.644834
51
 34.604267
0
ARC
8
0
62
0
10
1365.330924
20
-834.639253
30
  0.000000
40
126.818172
50
 32.702241
51
 33.644881
0
ARC
8
0
62
0
10
1362.503212
20
-836.454895
30
  0.000000
40
130.178606
50
 31.775941
51
 32.702288
0
ARC
8
0
62
0
10
1359.611081
20
-838.246538
30
  0.000000
40
133.580724
50
 30.865436
51
 31.775987
0
ARC
8
0
62
0
10
1356.658609
20
-840.011266
30
  0.000000
40
137.020397
50
 29.970235
51
 30.865482
0
ARC
8
0
62
0
10
1353.650099
20
-841.746276
30
  0.000000
40
140.493349
50
 29.089848
51
 29.970280
0
ARC
8
0
62
0
10
1350.078311
20
-843.731087
30
  0.000000
40
144.579562
50
 27.792498
51
 29.089020
0
ARC
8
0
62
0
10
1345.391439
20
-846.209418
30
  0.000000
40
149.881339
50
 26.529467
51
 27.795206
0
ARC
8
0
62
0
10
1340.617961
20
-848.600246
30
  0.000000
40
155.220076
50
 25.295518
51
 26.532041
0
ARC
8
0
62
0
10
1335.775580
20
-850.896340
30
  0.000000
40
160.579242
50
 24.089130
51
 25.297961
0
ARC
8
0
62
0
10
1330.882762
20
-853.091237
30
  0.000000
40
165.941815
50
 22.908825
51
 24.091446
0
ARC
8
0
62
0
10
1325.958636
20
-855.179278
30
  0.000000
40
171.290356
50
 21.753170
51
 22.911017
0
ARC
8
0
62
0
10
1321.022878
20
-857.155639
30
  0.000000
40
176.607092
50
 20.620776
51
 21.755242
0
ARC
8
0
62
0
10
1316.095597
20
-859.016354
30
  0.000000
40
181.873999
50
 19.510299
51
 20.622731
0
ARC
8
0
62
0
10
1311.197225
20
-860.758335
30
  0.000000
40
187.072895
50
 18.420442
51
 19.512143
0
ARC
8
0
62
0
10
1306.348388
20
-862.379381
30
  0.000000
40
192.185524
50
 17.349950
51
 18.422177
0
ARC
8
0
62
0
10
1301.569793
20
-863.878194
30
  0.000000
40
197.193655
50
 16.297609
51
 17.351579
0
ARC
8
0
62
0
10
1296.882103
20
-865.254372
30
  0.000000
40
202.079171
50
 15.262247
51
 16.299137
0
ARC
8
0
62
0
10
1292.305819
20
-866.508410
30
  0.000000
40
206.824166
50
 14.242732
51
 15.263677
0
ARC
8
0
62
0
10
1287.861152
20
-867.641693
30
  0.000000
40
211.411034
50
 13.237968
51
 14.244067
0
ARC
8
0
62
0
10
1283.567914
20
-868.656474
30
  0.000000
40
215.822571
50
 12.246893
51
 13.239211
0
ARC
8
0
62
0
10
1279.445392
20
-869.555863
30
  0.000000
40
220.042058
50
 11.268479
51
 12.248047
0
ARC
8
0
62
0
10
1275.512240
20
-870.343793
30
  0.000000
40
224.053354
50
 10.301730
51
 11.269547
0
ARC
8
0
62
0
10
1271.786367
20
-871.024995
30
  0.000000
40
227.840986
50
  9.345677
51
 10.302715
0
ARC
8
0
62
0
10
1268.284828
20
-871.604960
30
  0.000000
40
231.390228
50
  8.399377
51
  9.346580
0
ARC
8
0
62
0
10
1265.023728
20
-872.089896
30
  0.000000
40
234.687185
50
  7.461914
51
  8.400202
0
ARC
8
0
62
0
10
1262.018121
20
-872.486690
30
  0.000000
40
237.718869
50
  6.532391
51
  7.462662
0
ARC
8
0
62
0
10
1258.716775
20
-872.863721
30
  0.000000
40
241.041674
50
  5.303504
51
  6.532155
0
ARC
8
0
62
0
10
1255.595654
20
-873.154255
30
  0.000000
40
244.176289
50
  4.085579
51
  5.303692
0
ARC
8
0
62
0
10
1253.006385
20
-873.339994
30
  0.000000
40
246.772211
50
  2.876209
51
  4.085763
0
ARC
8
0
62
0
10
1250.970332
20
-873.443073
30
  0.000000
40
248.810872
50
  1.673451
51
  2.876389
0
ARC
8
0
62
0
10
1248.629125
20
-873.499483
30
  0.000000
40
251.152728
50
357.487416
51
  1.670717
0
ARC
8
0
62
0
10
1249.070990
20
-873.524646
30
  0.000000
40
250.710185
50
355.992757
51
357.488734
0
ARC
8
0
62
0
10
1250.545944
20
-873.627308
30
  0.000000
40
249.231662
50
354.791021
51
355.992605
0
ARC
8
0
62
0
10
1252.434943
20
-873.800298
30
  0.000000
40
247.334759
50
353.583481
51
354.791201
0
ARC
8
0
62
0
10
1254.877653
20
-874.075792
30
  0.000000
40
244.876563
50
352.367875
51
353.583664
0
ARC
8
0
62
0
10
1257.852846
20
-874.475260
30
  0.000000
40
241.874672
50
351.142234
51
352.368062
0
ARC
8
0
62
0
10
1260.715544
20
-874.917913
30
  0.000000
40
238.977955
50
350.214819
51
351.141411
0
ARC
8
0
62
0
10
1263.583466
20
-875.410217
30
  0.000000
40
236.068087
50
349.280098
51
350.214267
0
ARC
8
0
62
0
10
1266.709036
20
-875.999342
30
  0.000000
40
232.887482
50
348.336842
51
349.279474
0
ARC
8
0
62
0
10
1270.077379
20
-876.691780
30
  0.000000
40
229.448703
50
347.384139
51
348.336144
0
ARC
8
0
62
0
10
1273.672564
20
-877.493321
30
  0.000000
40
225.765251
50
346.421058
51
347.383366
0
ARC
8
0
62
0
10
1277.477696
20
-878.409010
30
  0.000000
40
221.851493
50
345.446638
51
346.420207
0
ARC
8
0
62
0
10
1281.475017
20
-879.443108
30
  0.000000
40
217.722581
50
344.459892
51
345.445708
0
ARC
8
0
62
0
10
1285.646014
20
-880.599061
30
  0.000000
40
213.394368
50
343.459802
51
344.458880
0
ARC
8
0
62
0
10
1289.971527
20
-881.879468
30
  0.000000
40
208.883327
50
342.445319
51
343.458706
0
ARC
8
0
62
0
10
1294.431863
20
-883.286065
30
  0.000000
40
204.206458
50
341.415358
51
342.444136
0
ARC
8
0
62
0
10
1299.006914
20
-884.819701
30
  0.000000
40
199.381201
50
340.368800
51
341.414085
0
ARC
8
0
62
0
10
1303.676272
20
-886.480329
30
  0.000000
40
194.425339
50
339.304485
51
340.367434
0
ARC
8
0
62
0
10
1308.419354
20
-888.267002
30
  0.000000
40
189.356906
50
338.221214
51
339.303023
0
ARC
8
0
62
0
10
1313.215522
20
-890.177868
30
  0.000000
40
184.194096
50
337.117747
51
338.219653
0
ARC
8
0
62
0
10
1318.044201
20
-892.210179
30
  0.000000
40
178.955165
50
335.992800
51
337.116083
0
ARC
8
0
62
0
10
1322.885006
20
-894.360300
30
  0.000000
40
173.658338
50
334.845044
51
335.991030
0
ARC
8
0
62
0
10
1327.717854
20
-896.623724
30
  0.000000
40
168.321721
50
333.673106
51
334.843164
0
ARC
8
0
62
0
10
1332.523088
20
-898.995098
30
  0.000000
40
162.963209
50
332.475569
51
333.671112
0
ARC
8
0
62
0
10
1337.281586
20
-901.468244
30
  0.000000
40
157.600400
50
331.250968
51
332.473457
0
ARC
8
0
62
0
10
1341.974874
20
-904.036199
30
  0.000000
40
152.250511
50
329.997797
51
331.248735
0
ARC
8
0
62
0
10
1346.585233
20
-906.691245
30
  0.000000
40
146.930301
50
328.714506
51
329.995439
0
ARC
8
0
62
0
10
1350.597095
20
-909.119256
30
  0.000000
40
142.240929
50
327.837910
51
328.711116
0
ARC
8
0
62
0
10
1353.549739
20
-910.976037
30
  0.000000
40
138.752987
50
326.950176
51
327.837955
0
ARC
8
0
62
0
10
1356.447206
20
-912.861387
30
  0.000000
40
135.296130
50
326.047384
51
326.950222
0
ARC
8
0
62
0
10
1359.285215
20
-914.772364
30
  0.000000
40
131.874709
50
325.129043
51
326.047430
0
ARC
8
0
62
0
10
1362.059710
20
-916.705916
30
  0.000000
40
128.492927
50
324.194658
51
325.129090
0
ARC
8
0
62
0
10
1364.766874
20
-918.658893
30
  0.000000
40
125.154835
50
323.243732
51
324.194705
0
ARC
8
0
62
0
10
1367.403131
20
-920.628054
30
  0.000000
40
121.864327
50
322.275762
51
323.243778
0
ARC
8
0
62
0
10
1369.965161
20
-922.610070
30
  0.000000
40
118.625131
50
321.290250
51
322.275809
0
ARC
8
0
62
0
10
1372.449906
20
-924.601541
30
  0.000000
40
115.440807
50
320.286696
51
321.290297
0
ARC
8
0
62
0
10
1374.854576
20
-926.598998
30
  0.000000
40
112.314744
50
319.264604
51
320.286742
0
ARC
8
0
62
0
10
1377.176657
20
-928.598914
30
  0.000000
40
109.250153
50
318.223485
51
319.264650
0
ARC
8
0
62
0
10
1379.413914
20
-930.597714
30
  0.000000
40
106.250066
50
317.162856
51
318.223529
0
ARC
8
0
62
0
10
1381.564399
20
-932.591784
30
  0.000000
40
103.317337
50
316.082249
51
317.162900
0
ARC
8
0
62
0
10
1383.626455
20
-934.577478
30
  0.000000
40
100.454636
50
314.981205
51
316.082291
0
ARC
8
0
62
0
10
1385.598717
20
-936.551131
30
  0.000000
40
 97.664452
50
313.859286
51
314.981245
0
ARC
8
0
62
0
10
1387.480116
20
-938.509067
30
  0.000000
40
 94.949094
50
312.716074
51
313.859324
0
ARC
8
0
62
0
10
1389.269878
20
-940.447606
30
  0.000000
40
 92.310688
50
311.551179
51
312.716110
0
ARC
8
0
62
0
10
1390.967530
20
-942.363079
30
  0.000000
40
 89.751185
50
310.364236
51
311.551211
0
ARC
8
0
62
0
10
1392.572895
20
-944.251832
30
  0.000000
40
 87.272357
50
309.154918
51
310.364265
0
ARC
8
0
62
0
10
1394.086094
20
-946.110239
30
  0.000000
40
 84.875809
50
307.922938
51
309.154943
0
ARC
8
0
62
0
10
1395.507542
20
-947.934710
30
  0.000000
40
 82.562973
50
306.668050
51
307.922958
0
ARC
8
0
62
0
10
1396.837947
20
-949.721702
30
  0.000000
40
 80.335122
50
305.390062
51
306.668065
0
ARC
8
0
62
0
10
1398.078309
20
-951.467725
30
  0.000000
40
 78.193372
50
304.088837
51
305.390072
0
ARC
8
0
62
0
10
1399.229910
20
-953.169355
30
  0.000000
40
 76.138687
50
302.764299
51
304.088841
0
ARC
8
0
62
0
10
1400.294313
20
-954.823242
30
  0.000000
40
 74.171889
50
301.416441
51
302.764296
0
ARC
8
0
62
0
10
1401.273357
20
-956.426115
30
  0.000000
40
 72.293664
50
300.045330
51
301.416431
0
ARC
8
0
62
0
10
1402.169148
20
-957.974795
30
  0.000000
40
 70.504571
50
298.651113
51
300.045312
0
ARC
8
0
62
0
10
1402.984052
20
-959.466203
30
  0.000000
40
 68.805051
50
297.234022
51
298.651087
0
ARC
8
0
62
0
10
1403.720691
20
-960.897366
30
  0.000000
40
 67.195435
50
295.794382
51
297.233988
0
ARC
8
0
62
0
10
1404.381928
20
-962.265426
30
  0.000000
40
 65.675954
50
294.332612
51
295.794338
0
ARC
8
0
62
0
10
1404.970862
20
-963.567647
30
  0.000000
40
 64.246751
50
292.849234
51
294.332559
0
ARC
8
0
62
0
10
1405.490817
20
-964.801423
30
  0.000000
40
 62.907887
50
291.344873
51
292.849170
0
ARC
8
0
62
0
10
1405.945332
20
-965.964284
30
  0.000000
40
 61.659356
50
289.820263
51
291.344799
0
ARC
8
0
62
0
10
1406.338149
20
-967.053902
30
  0.000000
40
 60.501093
50
288.276245
51
289.820178
0
ARC
8
0
62
0
10
1406.724564
20
-968.227269
30
  0.000000
40
 59.265737
50
285.930361
51
288.277255
0
ARC
8
0
62
0
10
1407.115240
20
-969.583005
30
  0.000000
40
 57.854839
50
283.541806
51
285.926831
0
ARC
8
0
62
0
10
1407.401463
20
-970.757750
30
  0.000000
40
 56.645731
50
281.119592
51
283.538575
0
ARC
8
0
62
0
10
1407.598614
20
-971.746299
30
  0.000000
40
 55.637719
50
278.668445
51
281.116708
0
ARC
8
0
62
0
10
1407.722694
20
-972.544323
30
  0.000000
40
 54.830109
50
276.193549
51
278.665950
0
ARC
8
0
62
0
10
1407.790216
20
-973.148403
30
  0.000000
40
 54.222271
50
273.700474
51
276.191483
0
ARC
8
0
62
0
10
1407.824990
20
-973.732611
30
  0.000000
40
 53.637037
50
266.173823
51
273.703682
0
ARC
8
0
62
0
10
1407.842492
20
-973.518043
30
  0.000000
40
 53.852295
50
262.833294
51
266.170477
0
ARC
8
0
62
0
10
1407.902266
20
-973.033895
30
  0.000000
40
 54.340117
50
260.346140
51
262.834446
0
ARC
8
0
62
0
10
1408.010576
20
-972.390766
30
  0.000000
40
 54.992302
50
257.878506
51
260.347259
0
ARC
8
0
62
0
10
1408.187968
20
-971.557347
30
  0.000000
40
 55.844390
50
255.436387
51
257.880115
0
ARC
8
0
62
0
10
1408.450669
20
-970.538011
30
  0.000000
40
 56.897030
50
253.024823
51
255.438458
0
ARC
8
0
62
0
10
1408.814327
20
-969.338009
30
  0.000000
40
 58.150923
50
250.648377
51
253.027322
0
ARC
8
0
62
0
10
1409.293904
20
-967.963433
30
  0.000000
40
 59.606754
50
248.311094
51
250.651264
0
ARC
8
0
62
0
10
1409.829866
20
-966.603001
30
  0.000000
40
 61.068947
50
246.781205
51
248.315552
0
ARC
8
0
62
0
10
1410.304372
20
-965.497116
30
  0.000000
40
 62.272333
50
245.266611
51
246.781126
0
ARC
8
0
62
0
10
1410.845718
20
-964.322133
30
  0.000000
40
 63.566025
50
243.772646
51
245.266542
0
ARC
8
0
62
0
10
1411.457431
20
-963.080616
30
  0.000000
40
 64.950062
50
242.299991
51
243.772588
0
ARC
8
0
62
0
10
1412.142823
20
-961.775258
30
  0.000000
40
 66.424417
50
240.849218
51
242.299942
0
ARC
8
0
62
0
10
1412.904982
20
-960.408876
30
  0.000000
40
 67.988988
50
239.420797
51
240.849178
0
ARC
8
0
62
0
10
1413.746758
20
-958.984403
30
  0.000000
40
 69.643592
50
238.015100
51
239.420766
0
ARC
8
0
62
0
10
1414.670758
20
-957.504878
30
  0.000000
40
 71.387946
50
236.632404
51
238.015078
0
ARC
8
0
62
0
10
1415.679335
20
-955.973439
30
  0.000000
40
 73.221667
50
235.272899
51
236.632390
0
ARC
8
0
62
0
10
1416.774580
20
-954.393316
30
  0.000000
40
 75.144256
50
233.936691
51
235.272893
0
ARC
8
0
62
0
10
1417.958315
20
-952.767822
30
  0.000000
40
 77.155091
50
232.623808
51
233.936691
0
ARC
8
0
62
0
10
1419.232089
20
-951.100344
30
  0.000000
40
 79.253421
50
231.334209
51
232.623815
0
ARC
8
0
62
0
10
1420.597168
20
-949.394331
30
  0.000000
40
 81.438351
50
230.067787
51
231.334222
0
ARC
8
0
62
0
10
1422.054534
20
-947.653290
30
  0.000000
40
 83.708843
50
228.824375
51
230.067805
0
ARC
8
0
62
0
10
1423.604876
20
-945.880775
30
  0.000000
40
 86.063705
50
227.603755
51
228.824398
0
ARC
8
0
62
0
10
1425.248594
20
-944.080376
30
  0.000000
40
 88.501582
50
226.405660
51
227.603782
0
ARC
8
0
62
0
10
1426.985790
20
-942.255709
30
  0.000000
40
 91.020959
50
225.229781
51
226.405691
0
ARC
8
0
62
0
10
1428.816268
20
-940.410411
30
  0.000000
40
 93.620146
50
224.075772
51
225.229815
0
ARC
8
0
62
0
10
1430.739535
20
-938.548126
30
  0.000000
40
 96.297282
50
222.943255
51
224.075808
0
ARC
8
0
62
0
10
1432.754799
20
-936.672497
30
  0.000000
40
 99.050331
50
221.831825
51
222.943294
0
ARC
8
0
62
0
10
1434.860972
20
-934.787157
30
  0.000000
40
101.877073
50
220.741054
51
221.831866
0
ARC
8
0
62
0
10
1437.056668
20
-932.895718
30
  0.000000
40
104.775111
50
219.670492
51
220.741096
0
ARC
8
0
62
0
10
1439.340210
20
-931.001764
30
  0.000000
40
107.741864
50
218.619677
51
219.670536
0
ARC
8
0
62
0
10
1441.709628
20
-929.108838
30
  0.000000
40
110.774571
50
217.588131
51
218.619722
0
ARC
8
0
62
0
10
1444.162668
20
-927.220436
30
  0.000000
40
113.870288
50
216.575370
51
217.588177
0
ARC
8
0
62
0
10
1446.696796
20
-925.339999
30
  0.000000
40
117.025894
50
215.580898
51
216.575416
0
ARC
8
0
62
0
10
1449.309199
20
-923.470898
30
  0.000000
40
120.238088
50
214.604220
51
215.580945
0
ARC
8
0
62
0
10
1451.996799
20
-921.616432
30
  0.000000
40
123.503396
50
213.644834
51
214.604267
0
ARC
8
0
62
0
10
1454.756253
20
-919.779816
30
  0.000000
40
126.818172
50
212.702241
51
213.644881
0
ARC
8
0
62
0
10
1457.583965
20
-917.964175
30
  0.000000
40
130.178606
50
211.775941
51
212.702288
0
ARC
8
0
62
0
10
1460.476096
20
-916.172531
30
  0.000000
40
133.580724
50
210.865436
51
211.775987
0
ARC
8
0
62
0
10
1463.428568
20
-914.407803
30
  0.000000
40
137.020397
50
209.970235
51
210.865482
0
ARC
8
0
62
0
10
1466.437079
20
-912.672794
30
  0.000000
40
140.493349
50
209.089848
51
209.970280
0
ARC
8
0
62
0
10
1469.497110
20
-910.970183
30
  0.000000
40
143.995160
50
208.223793
51
209.089893
0
ARC
8
0
62
0
10
1473.122974
20
-909.026419
30
  0.000000
40
148.109173
50
206.947169
51
208.222994
0
ARC
8
0
62
0
10
1477.869510
20
-906.605582
30
  0.000000
40
153.437400
50
205.703697
51
206.949788
0
ARC
8
0
62
0
10
1482.690940
20
-904.277153
30
  0.000000
40
158.791625
50
204.488289
51
205.706184
0
ARC
8
0
62
0
10
1487.569040
20
-902.047855
30
  0.000000
40
164.154981
50
203.299451
51
204.490647
0
ARC
8
0
62
0
10
1492.484891
20
-899.923618
30
  0.000000
40
169.510159
50
202.135736
51
203.301684
0
ARC
8
0
62
0
10
1497.418988
20
-897.909547
30
  0.000000
40
174.839489
50
200.995740
51
202.137848
0
ARC
8
0
62
0
10
1502.351351
20
-896.009896
30
  0.000000
40
180.125020
50
199.878104
51
200.997734
0
ARC
8
0
62
0
10
1507.261644
20
-894.228049
30
  0.000000
40
185.348613
50
198.781515
51
199.879984
0
ARC
8
0
62
0
10
1512.129292
20
-892.566501
30
  0.000000
40
190.492026
50
197.704705
51
198.783286
0
ARC
8
0
62
0
10
1516.933602
20
-891.026855
30
  0.000000
40
195.537011
50
196.646446
51
197.706369
0
ARC
8
0
62
0
10
1521.653881
20
-889.609810
30
  0.000000
40
200.465401
50
195.605552
51
196.648007
0
ARC
8
0
62
0
10
1526.269564
20
-888.315168
30
  0.000000
40
205.259208
50
194.580879
51
195.607014
0
ARC
8
0
62
0
10
1530.760326
20
-887.141842
30
  0.000000
40
209.900719
50
193.571317
51
194.582244
0
ARC
8
0
62
0
10
1535.106212
20
-886.087864
30
  0.000000
40
214.372583
50
192.575794
51
193.572590
0
ARC
8
0
62
0
10
1539.287746
20
-885.150408
30
  0.000000
40
218.657910
50
191.593273
51
192.576978
0
ARC
8
0
62
0
10
1543.286049
20
-884.325811
30
  0.000000
40
222.740357
50
190.622744
51
191.594369
0
ARC
8
0
62
0
10
1547.082955
20
-883.609607
30
  0.000000
40
226.604219
50
189.663231
51
190.623756
0
ARC
8
0
62
0
10
1550.661110
20
-882.996552
30
  0.000000
40
230.234511
50
188.713784
51
189.664162
0
ARC
8
0
62
0
10
1554.004083
20
-882.480672
30
  0.000000
40
233.617052
50
187.773476
51
188.714635
0
ARC
8
0
62
0
10
1557.096459
20
-882.055302
30
  0.000000
40
236.738545
50
186.841404
51
187.774249
0
ARC
8
0
62
0
10
1559.923930
20
-881.713134
30
  0.000000
40
239.586643
50
185.916688
51
186.842102
0
ARC
8
0
62
0
10
1562.995934
20
-881.395648
30
  0.000000
40
242.675009
50
184.693350
51
185.916481
0
ARC
8
0
62
0
10
1565.854081
20
-881.160202
30
  0.000000
40
245.542837
50
183.479947
51
184.693535
0
ARC
8
0
62
0
10
1568.169127
20
-881.018632
30
  0.000000
40
247.862208
50
182.274123
51
183.480129
0
ARC
8
0
62
0
10
1569.922005
20
-880.948241
30
  0.000000
40
249.616499
50
181.073954
51
182.274302
0
ARC
8
0
62
0
10
1571.550328
20
-880.922334
30
  0.000000
40
251.245022
50
177.786505
51
181.072901
0
ARC
8
0
62
0
10
1571.230914
20
-880.905817
30
  0.000000
40
250.925208
50
176.292322
51
177.787457
0
ARC
8
0
62
0
10
1569.924916
20
-880.821628
30
  0.000000
40
249.616499
50
175.091873
51
176.292221
0
ARC
8
0
62
0
10
1568.177124
20
-880.670761
30
  0.000000
40
247.862208
50
173.886046
51
175.092052
0
ARC
8
0
62
0
10
1565.871029
20
-880.422958
30
  0.000000
40
245.542837
50
172.672640
51
173.886228
0
ARC
8
0
62
0
10
1563.026721
20
-880.056421
30
  0.000000
40
242.675009
50
171.449694
51
172.672825
0
ARC
8
0
62
0
10
1560.267945
20
-879.644960
30
  0.000000
40
239.885720
50
170.524650
51
171.448911
0
ARC
8
0
62
0
10
1557.489015
20
-879.183372
30
  0.000000
40
237.068717
50
169.592576
51
170.524121
0
ARC
8
0
62
0
10
1554.447730
20
-878.627276
30
  0.000000
40
233.977010
50
168.652264
51
169.591976
0
ARC
8
0
62
0
10
1551.158591
20
-877.969954
30
  0.000000
40
230.622833
50
167.702813
51
168.651591
0
ARC
8
0
62
0
10
1547.637188
20
-877.205379
30
  0.000000
40
227.019384
50
166.743297
51
167.702065
0
ARC
8
0
62
0
10
1543.900107
20
-876.328252
30
  0.000000
40
223.180749
50
165.772765
51
166.742472
0
ARC
8
0
62
0
10
1539.964827
20
-875.334047
30
  0.000000
40
219.121826
50
164.790239
51
165.771861
0
ARC
8
0
62
0
10
1535.849623
20
-874.219044
30
  0.000000
40
214.858245
50
163.794712
51
164.789254
0
ARC
8
0
62
0
10
1531.573451
20
-872.980358
30
  0.000000
40
210.406282
50
162.785145
51
163.793644
0
ARC
8
0
62
0
10
1527.155839
20
-871.615962
30
  0.000000
40
205.782771
50
161.760467
51
162.783991
0
ARC
8
0
62
0
10
1522.616771
20
-870.124712
30
  0.000000
40
201.005016
50
160.719568
51
161.759224
0
ARC
8
0
62
0
10
1517.976568
20
-868.506354
30
  0.000000
40
196.090695
50
159.661303
51
160.718233
0
ARC
8
0
62
0
10
1513.255768
20
-866.761535
30
  0.000000
40
191.057771
50
158.584486
51
159.659873
0
ARC
8
0
62
0
10
1508.475003
20
-864.891805
30
  0.000000
40
185.924393
50
157.487892
51
158.582959
0
ARC
8
0
62
0
10
1503.654884
20
-862.899615
30
  0.000000
40
180.708806
50
156.370250
51
157.486263
0
ARC
8
0
62
0
10
1498.815873
20
-860.788306
30
  0.000000
40
175.429258
50
155.230247
51
156.368516
0
ARC
8
0
62
0
10
1493.978165
20
-858.562096
30
  0.000000
40
170.103904
50
154.066526
51
155.228404
0
ARC
8
0
62
0
10
1489.161573
20
-856.226060
30
  0.000000
40
164.750719
50
152.877682
51
154.064570
0
ARC
8
0
62
0
10
1484.385410
20
-853.786102
30
  0.000000
40
159.387409
50
151.662267
51
152.875610
0
ARC
8
0
62
0
10
1479.668377
20
-851.248928
30
  0.000000
40
154.031327
50
150.418790
51
151.660075
0
ARC
8
0
62
0
10
1475.028457
20
-848.622011
30
  0.000000
40
148.699393
50
149.145714
51
150.416474
0
ARC
8
0
62
0
10
1470.985698
20
-846.216603
30
  0.000000
40
143.995160
50
148.276282
51
149.142382
0
ARC
8
0
62
0
10
1468.007139
20
-844.375174
30
  0.000000
40
140.493349
50
147.395895
51
148.276327
0
ARC
8
0
62
0
10
1465.081535
20
-842.503747
30
  0.000000
40
137.020397
50
146.500693
51
147.395940
0
ARC
8
0
62
0
10
1462.213276
20
-840.605209
30
  0.000000
40
133.580724
50
145.590188
51
146.500739
0
ARC
8
0
62
0
10
1459.406531
20
-838.682557
30
  0.000000
40
130.178606
50
144.663887
51
145.590234
0
ARC
8
0
62
0
10
1456.665240
20
-836.738893
30
  0.000000
40
126.818172
50
143.721294
51
144.663934
0
ARC
8
0
62
0
10
1453.993098
20
-834.777413
30
  0.000000
40
123.503396
50
142.761909
51
143.721341
0
ARC
8
0
62
0
10
1451.393556
20
-832.801404
30
  0.000000
40
120.238088
50
141.785230
51
142.761955
0
ARC
8
0
62
0
10
1448.869802
20
-830.814230
30
  0.000000
40
117.025894
50
140.790759
51
141.785277
0
ARC
8
0
62
0
10
1446.424763
20
-828.819329
30
  0.000000
40
113.870288
50
139.777998
51
140.790806
0
ARC
8
0
62
0
10
1444.061091
20
-826.820199
30
  0.000000
40
110.774571
50
138.746453
51
139.778044
0
ARC
8
0
62
0
10
1441.781161
20
-824.820391
30
  0.000000
40
107.741864
50
137.695639
51
138.746498
0
ARC
8
0
62
0
10
1439.587064
20
-822.823502
30
  0.000000
40
104.775111
50
136.625079
51
137.695683
0
ARC
8
0
62
0
10
1437.480604
20
-820.833163
30
  0.000000
40
101.877073
50
135.534309
51
136.625122
0
ARC
8
0
62
0
10
1435.463293
20
-818.853031
30
  0.000000
40
 99.050331
50
134.422881
51
135.534350
0
ARC
8
0
62
0
10
1433.536347
20
-816.886776
30
  0.000000
40
 96.297282
50
133.290367
51
134.422920
0
ARC
8
0
62
0
10
1431.700689
20
-814.938079
30
  0.000000
40
 93.620146
50
132.136361
51
133.290404
0
ARC
8
0
62
0
10
1429.956941
20
-813.010615
30
  0.000000
40
 91.020959
50
130.960484
51
132.136394
0
ARC
8
0
62
0
10
1428.305429
20
-811.108047
30
  0.000000
40
 88.501582
50
129.762393
51
130.960515
0
ARC
8
0
62
0
10
1426.746181
20
-809.234016
30
  0.000000
40
 86.063705
50
128.541777
51
129.762420
0
ARC
8
0
62
0
10
1425.278928
20
-807.392131
30
  0.000000
40
 83.708843
50
127.298370
51
128.541800
0
ARC
8
0
62
0
10
1423.903108
20
-805.585960
30
  0.000000
40
 81.438351
50
126.031953
51
127.298388
0
ARC
8
0
62
0
10
1422.617867
20
-803.819020
30
  0.000000
40
 79.253421
50
124.742360
51
126.031966
0
ARC
8
0
62
0
10
1421.422064
20
-802.094769
30
  0.000000
40
 77.155091
50
123.429484
51
124.742367
0
ARC
8
0
62
0
10
1420.314274
20
-800.416597
30
  0.000000
40
 75.144256
50
122.093282
51
123.429485
0
ARC
8
0
62
0
10
1419.292798
20
-798.787814
30
  0.000000
40
 73.221667
50
120.733785
51
122.093276
0
ARC
8
0
62
0
10
1418.355660
20
-797.211646
30
  0.000000
40
 71.387946
50
119.351097
51
120.733771
0
ARC
8
0
62
0
10
1417.500624
20
-795.691223
30
  0.000000
40
 69.643592
50
117.945409
51
119.351075
0
ARC
8
0
62
0
10
1416.725196
20
-794.229573
30
  0.000000
40
 67.988988
50
116.516997
51
117.945378
0
ARC
8
0
62
0
10
1416.026631
20
-792.829612
30
  0.000000
40
 66.424417
50
115.066233
51
116.516958
0
ARC
8
0
62
0
10
1415.401947
20
-791.494137
30
  0.000000
40
 64.950062
50
113.593588
51
115.066184
0
ARC
8
0
62
0
10
1414.847932
20
-790.225821
30
  0.000000
40
 63.566025
50
112.099633
51
113.593529
0
ARC
8
0
62
0
10
1414.361152
20
-789.027203
30
  0.000000
40
 62.272333
50
110.585049
51
112.099564
0
ARC
8
0
62
0
10
1413.937966
20
-787.900682
30
  0.000000
40
 61.068947
50
109.050623
51
110.584970
0
ARC
8
0
62
0
10
1413.574535
20
-786.848511
30
  0.000000
40
 59.955778
50
107.497252
51
109.050533
0
ARC
8
0
62
0
10
1413.219862
20
-785.720135
30
  0.000000
40
 58.772975
50
105.138187
51
107.498222
0
LINE
8
0
62
0
10
1116.331444
20
-1063.372405
30
  0.000000
11
1116.331444
21
-1208.574298
31
  0.000000
0
ARC
8
0
62
0
10
1160.326121
20
-1184.665326
30
  0.000000
40
 50.071653
50
208.521933
51
296.768576
0
ARC
8
0
62
0
10
1174.247921
20
-1212.263406
30
  0.000000
40
 19.160967
50
296.768576
51
352.660082
0
ARC
8
0
62
0
10
1585.876894
20
-1265.285808
30
  0.000000
40
395.868895
50
147.880945
51
172.660082
0
ARC
8
0
62
0
10
523.962128
20
-598.655695
30
  0.000000
40
857.948747
50
327.880945
51
336.239895
0
ARC
8
0
62
0
10
1209.540808
20
-900.461861
30
  0.000000
40
108.879264
50
336.239895
51
 29.141684
0
ARC
8
0
62
0
10
1227.019000
20
-890.716962
30
  0.000000
40
 88.868011
50
 29.141684
51
144.962327
0
LINE
8
0
62
0
10
1154.256118
20
-839.696512
30
  0.000000
11
1130.332878
21
-873.814618
31
  0.000000
0
ARC
8
0
62
0
10
1193.591021
20
-918.170560
30
  0.000000
40
 77.259577
50
144.962268
51
179.999965
0
LINE
8
0
62
0
10
1116.331444
20
-918.170512
30
  0.000000
11
1116.331444
21
-1063.372405
31
  0.000000
0
LINE
8
0
62
0
10
993.368480
20
-801.854222
30
  0.000000
11
915.588001
21
-801.854222
31
  0.000000
0
ARC
8
0
62
0
10
915.588001
20
-854.659241
30
  0.000000
40
 52.805019
50
 90.000000
51
167.096962
0
LINE
8
0
62
0
10
864.116343
20
-842.867785
30
  0.000000
11
841.407147
21
-941.997191
31
  0.000000
0
ARC
8
0
62
0
10
1164.817851
20
-1016.086373
30
  0.000000
40
331.788623
50
167.096929
51
197.249577
0
ARC
8
0
62
0
10
921.492037
20
-1091.639077
30
  0.000000
40
 77.003100
50
197.249577
51
244.685996
0
ARC
8
0
62
0
10
956.930812
20
-1016.715172
30
  0.000000
40
159.885536
50
244.685996
51
304.552759
0
ARC
8
0
62
0
10
960.912950
20
-1022.497805
30
  0.000000
40
152.864407
50
304.552759
51
357.272345
0
ARC
8
0
62
0
10
-252.691990
20
-964.678564
30
  0.000000
40
1367.845894
50
357.272345
51
  5.380161
0
ARC
8
0
62
0
10
1071.148896
20
-840.001230
30
  0.000000
40
 38.147008
50
  5.380161
51
 89.999905
0
LINE
8
0
62
0
10
1071.148959
20
-801.854222
30
  0.000000
11
993.368480
21
-801.854222
31
  0.000000
0
LINE
8
0
62
0
10
546.771684
20
-1239.872770
30
  0.000000
11
547.703685
21
-1288.372655
31
  0.000000
0
ARC
8
0
62
0
10
522.708351
20
-1288.853015
30
  0.000000
40
 24.999950
50
277.902309
51
  1.100974
0
ARC
8
0
62
0
10
656.755442
20
-2254.592408
30
  0.000000
40
949.998100
50
 97.902309
51
116.426579
0
ARC
8
0
62
0
10
136.047239
20
-1206.853179
30
  0.000000
40
219.999560
50
270.000000
51
296.426579
0
LINE
8
0
62
0
10
136.047239
20
-1426.852739
30
  0.000000
11
103.361865
21
-1426.852739
31
  0.000000
0
ARC
8
0
62
0
10
103.361879
20
-1326.852939
30
  0.000000
40
 99.999800
50
181.100868
51
270.000000
0
LINE
8
0
62
0
10
  3.380536
20
-1328.774194
30
  0.000000
11
  0.758613
21
-1192.333497
31
  0.000000
0
ARC
8
0
62
0
10
 25.753949
20
-1191.853209
30
  0.000000
40
 24.999950
50
 90.000000
51
181.100809
0
LINE
8
0
62
0
10
 25.753949
20
-1166.853259
30
  0.000000
11
520.844346
21
-1166.853259
31
  0.000000
0
ARC
8
0
62
0
10
520.844346
20
-1191.853209
30
  0.000000
40
 24.999950
50
  1.100893
51
 90.000000
0
LINE
8
0
62
0
10
545.839682
20
-1191.372884
30
  0.000000
11
546.771684
21
-1239.872770
31
  0.000000
0
LINE
8
0
62
0
10
923.560448
20
-1327.189876
30
  0.000000
11
923.560448
21
-1249.409397
31
  0.000000
0
ARC
8
0
62
0
10
870.755429
20
-1249.409397
30
  0.000000
40
 52.805019
50
  0.000000
51
 77.096962
0
LINE
8
0
62
0
10
882.546885
20
-1197.937739
30
  0.000000
11
783.417479
21
-1175.228543
31
  0.000000
0
ARC
8
0
62
0
10
709.328297
20
-1498.639247
30
  0.000000
40
331.788623
50
 77.096929
51
107.249577
0
ARC
8
0
62
0
10
633.775593
20
-1255.313433
30
  0.000000
40
 77.003100
50
107.249577
51
154.685996
0
ARC
8
0
62
0
10
708.699498
20
-1290.752208
30
  0.000000
40
159.885536
50
154.685996
51
214.552759
0
ARC
8
0
62
0
10
702.916865
20
-1294.734346
30
  0.000000
40
152.864407
50
214.552759
51
267.272345
0
ARC
8
0
62
0
10
760.736107
20
-81.129406
30
  0.000000
40
1367.845894
50
267.272345
51
275.380161
0
ARC
8
0
62
0
10
885.413440
20
-1404.970292
30
  0.000000
40
 38.147008
50
275.380161
51
359.999905
0
LINE
8
0
62
0
10
923.560448
20
-1404.970355
30
  0.000000
11
923.560448
21
-1327.189876
31
  0.000000
0
LINE
8
0
62
0
10
1110.460587
20
-1318.123787
30
  0.000000
11
1110.460587
21
-1172.921895
31
  0.000000
0
ARC
8
0
62
0
10
1066.465910
20
-1196.830866
30
  0.000000
40
 50.071653
50
 28.521933
51
116.768576
0
ARC
8
0
62
0
10
1052.544110
20
-1169.232786
30
  0.000000
40
 19.160967
50
116.768576
51
172.660082
0
ARC
8
0
62
0
10
640.915138
20
-1116.210385
30
  0.000000
40
395.868895
50
327.880945
51
352.660082
0
ARC
8
0
62
0
10
1702.829904
20
-1782.840498
30
  0.000000
40
857.948747
50
147.880945
51
156.239895
0
ARC
8
0
62
0
10
1017.251223
20
-1481.034331
30
  0.000000
40
108.879264
50
156.239895
51
209.141684
0
ARC
8
0
62
0
10
999.773031
20
-1490.779230
30
  0.000000
40
 88.868011
50
209.141684
51
324.962327
0
LINE
8
0
62
0
10
1072.535914
20
-1541.799681
30
  0.000000
11
1096.459153
21
-1507.681574
31
  0.000000
0
ARC
8
0
62
0
10
1033.201010
20
-1463.325633
30
  0.000000
40
 77.259577
50
324.962268
51
  0.000000
0
LINE
8
0
62
0
10
1110.460587
20
-1463.325680
30
  0.000000
11
1110.460587
21
-1318.123787
31
  0.000000
0
ARC
8
0
62
0
10
1301.859294
20
-1456.350845
30
  0.000000
40
 22.031105
50
291.839379
51
320.321960
0
ARC
8
0
62
0
10
1225.622289
20
-1266.124006
30
  0.000000
40
226.966048
50
266.618528
51
291.839379
0
ARC
8
0
62
0
10
1213.724394
20
-1467.488233
30
  0.000000
40
 25.250626
50
178.149310
51
266.618528
0
ARC
8
0
62
0
10
1871.419984
20
-1488.739613
30
  0.000000
40
683.289462
50
163.679748
51
178.149310
0
ARC
8
0
62
0
10
912.451071
20
-1211.378980
30
  0.000000
40
314.995966
50
344.278425
51
 13.709477
0
ARC
8
0
62
0
10
1245.501723
20
-1128.720369
30
  0.000000
40
 28.189408
50
138.449732
51
196.497261
0
LINE
8
0
62
0
10
1224.405501
20
-1110.022987
30
  0.000000
11
1246.871900
21
-1083.398437
31
  0.000000
0
ARC
8
0
62
0
10
1257.548242
20
-1097.449500
30
  0.000000
40
 17.647001
50
 59.722469
51
127.228460
0
ARC
8
0
62
0
10
1211.911183
20
-1175.618320
30
  0.000000
40
108.162776
50
 29.590644
51
 59.722469
0
ARC
8
0
62
0
10
1091.868614
20
-1243.786066
30
  0.000000
40
246.210087
50
  4.476839
51
 29.590644
0
ARC
8
0
62
0
10
472.782110
20
-1292.257431
30
  0.000000
40
867.191224
50
348.804541
51
  4.476839
0
ARC
8
0
62
0
10
1301.859294
20
-1456.350845
30
  0.000000
40
 22.031105
50
320.321960
51
348.804541
0
LINE
8
0
62
0
10
 36.051283
20
-1523.469778
30
  0.000000
11
 35.119281
21
-1474.969892
31
  0.000000
0
ARC
8
0
62
0
10
 60.114616
20
-1474.489532
30
  0.000000
40
 24.999950
50
 97.902309
51
181.100974
0
ARC
8
0
62
0
10
-73.932475
20
-508.750139
30
  0.000000
40
949.998100
50
277.902309
51
296.426579
0
ARC
8
0
62
0
10
446.775728
20
-1556.489368
30
  0.000000
40
219.999560
50
 90.000000
51
116.426579
0
LINE
8
0
62
0
10
446.775728
20
-1336.489808
30
  0.000000
11
479.461102
21
-1336.489808
31
  0.000000
0
ARC
8
0
62
0
10
479.461088
20
-1436.489608
30
  0.000000
40
 99.999800
50
  1.100868
51
 90.000000
0
LINE
8
0
62
0
10
579.442431
20
-1434.568354
30
  0.000000
11
582.064354
21
-1571.009050
31
  0.000000
0
ARC
8
0
62
0
10
557.069018
20
-1571.489338
30
  0.000000
40
 24.999950
50
270.000000
51
  1.100809
0
LINE
8
0
62
0
10
557.069018
20
-1596.489288
30
  0.000000
11
 61.978621
21
-1596.489288
31
  0.000000
0
ARC
8
0
62
0
10
 61.978621
20
-1571.489338
30
  0.000000
40
 24.999950
50
181.100893
51
270.000000
0
LINE
8
0
62
0
10
 36.983285
20
-1571.969663
30
  0.000000
11
 36.051283
21
-1523.469778
31
  0.000000
0
ENDSEC
0
EOF
