0
SECTION
2
HEADER
0
ENDSEC
0
SECTION
2
ENTITIES
0
LINE
8
0
62
0
10
  0.177928
20
-765.176398
30
  0.000000
11
  0.177928
21
 -0.177928
31
  0.000000
0
LINE
8
0
62
0
10
  0.177928
20
 -0.177928
30
  0.000000
11
105.177718
21
 -0.177928
31
  0.000000
0
LINE
8
0
62
0
10
105.177718
20
 -0.177928
30
  0.000000
11
105.177718
21
-765.176398
31
  0.000000
0
LINE
8
0
62
0
10
105.177718
20
-765.176398
30
  0.000000
11
  0.177928
21
-765.176398
31
  0.000000
0
LINE
8
0
62
0
10
105.355502
20
-765.176398
30
  0.000000
11
105.355502
21
 -0.177928
31
  0.000000
0
LINE
8
0
62
0
10
105.355502
20
 -0.177928
30
  0.000000
11
210.355292
21
 -0.177928
31
  0.000000
0
LINE
8
0
62
0
10
210.355292
20
 -0.177928
30
  0.000000
11
210.355292
21
-765.176398
31
  0.000000
0
LINE
8
0
62
0
10
210.355292
20
-765.176398
30
  0.000000
11
105.355502
21
-765.176398
31
  0.000000
0
LINE
8
0
62
0
10
210.533076
20
-765.176398
30
  0.000000
11
210.533076
21
 -0.177928
31
  0.000000
0
LINE
8
0
62
0
10
210.533076
20
 -0.177928
30
  0.000000
11
315.532866
21
 -0.177928
31
  0.000000
0
LINE
8
0
62
0
10
315.532866
20
 -0.177928
30
  0.000000
11
315.532866
21
-765.176398
31
  0.000000
0
LINE
8
0
62
0
10
315.532866
20
-765.176398
30
  0.000000
11
210.533076
21
-765.176398
31
  0.000000
0
LINE
8
0
62
0
10
522.228040
20
-573.106404
30
  0.000000
11
623.241330
21
-25.343614
31
  0.000000
0
LINE
8
0
62
0
10
623.241330
20
-25.343614
30
  0.000000
11
315.710650
21
 -0.154326
31
  0.000000
0
LINE
8
0
62
0
10
315.710650
20
 -0.154326
30
  0.000000
11
315.710650
21
-535.022399
31
  0.000000
0
LINE
8
0
62
0
10
315.710650
20
-535.022399
30
  0.000000
11
342.154448
21
-565.320403
31
  0.000000
0
LINE
8
0
62
0
10
342.154448
20
-565.320403
30
  0.000000
11
522.228040
21
-573.106404
31
  0.000000
0
LINE
8
0
62
0
10
352.700153
20
-573.187847
30
  0.000000
11
352.700153
21
-641.279448
31
  0.000000
0
ARC
8
0
62
0
10
382.700093
20
-701.187591
30
  0.000000
40
 66.999866
50
116.600135
51
206.894750
0
ARC
8
0
62
0
10
360.700137
20
-708.896665
30
  0.000000
40
 43.999912
50
210.904169
51
270.444067
0
ARC
8
0
62
0
10
359.305075
20
-528.902431
30
  0.000000
40
223.999552
50
270.444067
51
299.245484
0
ARC
8
0
62
0
10
649.504659
20
-1047.186899
30
  0.000000
40
369.999260
50
 67.566688
51
119.245484
0
LINE
8
0
62
0
10
790.699277
20
-705.187583
30
  0.000000
11
790.699277
21
-573.187847
31
  0.000000
0
LINE
8
0
62
0
10
790.699277
20
-573.187847
30
  0.000000
11
352.700153
21
-573.187847
31
  0.000000
0
LINE
8
0
62
0
10
628.083791
20
 -0.048896
30
  0.000000
11
527.070501
21
-547.811686
31
  0.000000
0
LINE
8
0
62
0
10
527.070501
20
-547.811686
30
  0.000000
11
834.601180
21
-573.000974
31
  0.000000
0
LINE
8
0
62
0
10
834.601180
20
-573.000974
30
  0.000000
11
834.601180
21
-38.132901
31
  0.000000
0
LINE
8
0
62
0
10
834.601180
20
-38.132901
30
  0.000000
11
808.157382
21
 -7.834897
31
  0.000000
0
LINE
8
0
62
0
10
808.157382
20
 -7.834897
30
  0.000000
11
628.083791
21
 -0.048896
31
  0.000000
0
LINE
8
0
62
0
10
575.174489
20
-719.150533
30
  0.000000
11
643.266089
21
-719.150533
31
  0.000000
0
ARC
8
0
62
0
10
703.174233
20
-749.150473
30
  0.000000
40
 66.999866
50
 63.105250
51
153.399865
0
ARC
8
0
62
0
10
710.883306
20
-727.150517
30
  0.000000
40
 43.999912
50
359.555933
51
 59.095831
0
ARC
8
0
62
0
10
530.889072
20
-725.755455
30
  0.000000
40
223.999552
50
330.754516
51
359.555933
0
ARC
8
0
62
0
10
1049.173541
20
-1015.955039
30
  0.000000
40
369.999260
50
150.754516
51
202.433312
0
LINE
8
0
62
0
10
707.174225
20
-1157.149657
30
  0.000000
11
575.174489
21
-1157.149657
31
  0.000000
0
LINE
8
0
62
0
10
575.174489
20
-1157.149657
30
  0.000000
11
575.174489
21
-719.150533
31
  0.000000
0
LINE
8
0
62
0
10
 50.177828
20
-1500.352651
30
  0.000000
11
  0.177928
21
-765.354121
31
  0.000000
0
LINE
8
0
62
0
10
  0.177928
20
-765.354121
30
  0.000000
11
575.176778
21
-765.354121
31
  0.000000
0
LINE
8
0
62
0
10
575.176778
20
-765.354121
30
  0.000000
11
525.176878
21
-1500.352651
31
  0.000000
0
LINE
8
0
62
0
10
525.176878
20
-1500.352651
30
  0.000000
11
 50.177828
21
-1500.352651
31
  0.000000
0
ENDSEC
0
EOF
